<?xml version="1.0" encoding="utf-8" standalone="no"?>
<!DOCTYPE svg PUBLIC "-//W3C//DTD SVG 1.1//EN"
  "http://www.w3.org/Graphics/SVG/1.1/DTD/svg11.dtd">
<svg xmlns:xlink="http://www.w3.org/1999/xlink" width="783.100781pt" height="280.72pt" viewBox="0 0 783.100781 280.72" xmlns="http://www.w3.org/2000/svg" version="1.1">
 <metadata>
  <rdf:RDF xmlns:dc="http://purl.org/dc/elements/1.1/" xmlns:cc="http://creativecommons.org/ns#" xmlns:rdf="http://www.w3.org/1999/02/22-rdf-syntax-ns#">
   <cc:Work>
    <dc:type rdf:resource="http://purl.org/dc/dcmitype/StillImage"/>
    <dc:date>2026-07-16T00:38:42.563386</dc:date>
    <dc:format>image/svg+xml</dc:format>
    <dc:creator>
     <cc:Agent>
      <dc:title>Matplotlib v3.11.0, https://matplotlib.org/</dc:title>
     </cc:Agent>
    </dc:creator>
   </cc:Work>
  </rdf:RDF>
 </metadata>
 <defs>
  <style type="text/css">*{stroke-linejoin: round; stroke-linecap: butt}</style>
 </defs>
 <g id="figure_1">
  <g id="patch_1">
   <path d="M 0 280.72 
L 783.100781 280.72 
L 783.100781 0 
L 0 0 
L 0 280.72 
z
" style="fill: none; opacity: 0"/>
  </g>
  <g id="axes_1">
   <g id="patch_2">
    <path d="M 41.476562 243.52 
L 373.596562 243.52 
L 373.596562 22.66 
L 41.476562 22.66 
L 41.476562 243.52 
z
" style="fill: none; opacity: 0"/>
   </g>
   <g id="matplotlib.axis_1">
    <g id="xtick_1">
     <g id="line2d_1">
      <path d="M 41.476562 243.52 
L 41.476562 22.66 
" clip-path="url(#pf714fd7458)" style="fill: none; stroke: #d0d7de; stroke-opacity: 0.35; stroke-width: 0.6; stroke-linecap: square"/>
     </g>
     <g id="line2d_2">
      <defs>
       <path id="m9e6b99fb8a" d="M 0 0 
L 0 3.5 
" style="stroke: #24292f; stroke-width: 0.8"/>
      </defs>
      <g>
       <use xlink:href="#m9e6b99fb8a" x="41.476562" y="243.52" style="fill: #24292f; stroke: #24292f; stroke-width: 0.8"/>
      </g>
     </g>
     <g id="text_1">
      <!-- 0 -->
      <g style="fill: #24292f" transform="translate(38.776562 258.26) scale(0.09 -0.09)">
       <defs>
        <path id="PingFangHK-Regular-13" d="M 1920 4659 
C 1370 4659 960 4422 685 3936 
C 442 3526 320 2976 320 2285 
C 320 1594 442 1043 685 634 
C 960 154 1370 -90 1920 -90 
C 2464 -90 2874 154 3155 634 
C 3398 1043 3520 1594 3520 2285 
C 3520 2976 3398 3526 3155 3936 
C 2874 4422 2464 4659 1920 4659 
z
M 1920 4211 
C 2330 4211 2624 3994 2803 3552 
C 2931 3245 3002 2822 3002 2285 
C 3002 1754 2931 1331 2803 1018 
C 2624 582 2330 358 1920 358 
C 1510 358 1216 582 1037 1018 
C 909 1331 845 1754 845 2285 
C 845 2822 909 3245 1037 3552 
C 1216 3994 1510 4211 1920 4211 
z
" transform="scale(0.015625)"/>
       </defs>
       <use xlink:href="#PingFangHK-Regular-13"/>
      </g>
     </g>
    </g>
    <g id="xtick_2">
     <g id="line2d_3">
      <path d="M 107.900562 243.52 
L 107.900562 22.66 
" clip-path="url(#pf714fd7458)" style="fill: none; stroke: #d0d7de; stroke-opacity: 0.35; stroke-width: 0.6; stroke-linecap: square"/>
     </g>
     <g id="line2d_4">
      <g>
       <use xlink:href="#m9e6b99fb8a" x="107.900562" y="243.52" style="fill: #24292f; stroke: #24292f; stroke-width: 0.8"/>
      </g>
     </g>
     <g id="text_2">
      <!-- 200 -->
      <g style="fill: #24292f" transform="translate(99.800562 258.26) scale(0.09 -0.09)">
       <defs>
        <path id="PingFangHK-Regular-15" d="M 1984 4659 
C 1523 4659 1146 4506 864 4198 
C 582 3898 435 3488 435 2976 
L 960 2976 
C 966 3379 1062 3686 1242 3891 
C 1408 4109 1651 4211 1965 4211 
C 2259 4211 2496 4134 2662 3981 
C 2829 3827 2912 3616 2912 3334 
C 2912 3040 2790 2765 2560 2515 
C 2438 2387 2202 2202 1843 1946 
C 1357 1613 1030 1338 851 1133 
C 544 794 397 416 397 0 
L 3443 0 
L 3443 467 
L 1043 467 
C 1126 774 1459 1126 2042 1517 
C 2515 1837 2829 2086 2989 2253 
C 3283 2573 3437 2931 3437 3328 
C 3437 3725 3296 4051 3027 4294 
C 2752 4538 2406 4659 1984 4659 
z
" transform="scale(0.015625)"/>
       </defs>
       <use xlink:href="#PingFangHK-Regular-15"/>
       <use xlink:href="#PingFangHK-Regular-13" transform="translate(60 0)"/>
       <use xlink:href="#PingFangHK-Regular-13" transform="translate(120 0)"/>
      </g>
     </g>
    </g>
    <g id="xtick_3">
     <g id="line2d_5">
      <path d="M 174.324562 243.52 
L 174.324562 22.66 
" clip-path="url(#pf714fd7458)" style="fill: none; stroke: #d0d7de; stroke-opacity: 0.35; stroke-width: 0.6; stroke-linecap: square"/>
     </g>
     <g id="line2d_6">
      <g>
       <use xlink:href="#m9e6b99fb8a" x="174.324562" y="243.52" style="fill: #24292f; stroke: #24292f; stroke-width: 0.8"/>
      </g>
     </g>
     <g id="text_3">
      <!-- 400 -->
      <g style="fill: #24292f" transform="translate(166.224562 258.26) scale(0.09 -0.09)">
       <defs>
        <path id="PingFangHK-Regular-17" d="M 2458 4570 
L 154 1536 
L 154 1037 
L 2451 1037 
L 2451 0 
L 2950 0 
L 2950 1037 
L 3693 1037 
L 3693 1466 
L 2950 1466 
L 2950 4570 
L 2458 4570 
z
M 2432 3885 
L 2451 3885 
L 2451 1466 
L 595 1466 
L 2432 3885 
z
" transform="scale(0.015625)"/>
       </defs>
       <use xlink:href="#PingFangHK-Regular-17"/>
       <use xlink:href="#PingFangHK-Regular-13" transform="translate(60 0)"/>
       <use xlink:href="#PingFangHK-Regular-13" transform="translate(120 0)"/>
      </g>
     </g>
    </g>
    <g id="xtick_4">
     <g id="line2d_7">
      <path d="M 240.748562 243.52 
L 240.748562 22.66 
" clip-path="url(#pf714fd7458)" style="fill: none; stroke: #d0d7de; stroke-opacity: 0.35; stroke-width: 0.6; stroke-linecap: square"/>
     </g>
     <g id="line2d_8">
      <g>
       <use xlink:href="#m9e6b99fb8a" x="240.748562" y="243.52" style="fill: #24292f; stroke: #24292f; stroke-width: 0.8"/>
      </g>
     </g>
     <g id="text_4">
      <!-- 600 -->
      <g style="fill: #24292f" transform="translate(232.648562 258.26) scale(0.09 -0.09)">
       <defs>
        <path id="PingFangHK-Regular-19" d="M 1984 4659 
C 1466 4659 1056 4422 755 3942 
C 467 3488 326 2893 326 2163 
C 326 1466 454 922 723 531 
C 1005 122 1421 -90 1978 -90 
C 2426 -90 2790 64 3085 358 
C 3373 653 3520 1030 3520 1478 
C 3520 1926 3386 2285 3123 2566 
C 2854 2848 2502 2989 2067 2989 
C 1798 2989 1562 2925 1357 2790 
C 1139 2662 979 2477 864 2240 
L 838 2240 
C 832 2323 832 2381 832 2406 
C 832 2925 928 3354 1133 3686 
C 1338 4045 1619 4218 1978 4218 
C 2509 4218 2822 3962 2925 3437 
L 3443 3437 
C 3315 4256 2829 4659 1984 4659 
z
M 1965 2554 
C 2278 2554 2528 2458 2720 2253 
C 2906 2061 3002 1805 3002 1478 
C 3002 1152 2906 883 2714 666 
C 2522 461 2272 352 1965 352 
C 1645 352 1395 461 1203 678 
C 1011 883 922 1146 922 1466 
C 922 1786 1018 2042 1216 2246 
C 1414 2451 1664 2554 1965 2554 
z
" transform="scale(0.015625)"/>
       </defs>
       <use xlink:href="#PingFangHK-Regular-19"/>
       <use xlink:href="#PingFangHK-Regular-13" transform="translate(60 0)"/>
       <use xlink:href="#PingFangHK-Regular-13" transform="translate(120 0)"/>
      </g>
     </g>
    </g>
    <g id="xtick_5">
     <g id="line2d_9">
      <path d="M 307.172562 243.52 
L 307.172562 22.66 
" clip-path="url(#pf714fd7458)" style="fill: none; stroke: #d0d7de; stroke-opacity: 0.35; stroke-width: 0.6; stroke-linecap: square"/>
     </g>
     <g id="line2d_10">
      <g>
       <use xlink:href="#m9e6b99fb8a" x="307.172562" y="243.52" style="fill: #24292f; stroke: #24292f; stroke-width: 0.8"/>
      </g>
     </g>
     <g id="text_5">
      <!-- 800 -->
      <g style="fill: #24292f" transform="translate(299.072562 258.26) scale(0.09 -0.09)">
       <defs>
        <path id="PingFangHK-Regular-1b" d="M 1920 4659 
C 1440 4659 1069 4538 800 4288 
C 550 4064 429 3782 429 3450 
C 429 3206 486 3002 602 2835 
C 723 2656 902 2522 1146 2438 
L 1146 2426 
C 902 2368 704 2234 538 2029 
C 358 1811 269 1555 269 1261 
C 269 858 410 531 691 288 
C 979 38 1389 -90 1920 -90 
C 2445 -90 2854 38 3149 288 
C 3430 531 3571 858 3571 1261 
C 3571 1555 3482 1811 3302 2029 
C 3136 2234 2931 2368 2694 2426 
L 2694 2438 
C 2931 2522 3110 2656 3238 2835 
C 3354 3002 3411 3206 3411 3450 
C 3411 3782 3283 4064 3040 4288 
C 2771 4538 2394 4659 1920 4659 
z
M 1920 4230 
C 2240 4230 2496 4147 2682 3981 
C 2835 3840 2918 3654 2918 3430 
C 2918 3200 2848 3008 2707 2867 
C 2534 2701 2272 2611 1920 2611 
C 1562 2611 1299 2701 1133 2867 
C 992 3008 922 3200 922 3430 
C 922 3654 998 3840 1158 3981 
C 1338 4147 1594 4230 1920 4230 
z
M 1920 2202 
C 2285 2202 2573 2112 2778 1926 
C 2957 1760 3053 1536 3053 1261 
C 3053 992 2957 774 2778 608 
C 2573 429 2291 339 1920 339 
C 1549 339 1261 429 1069 602 
C 877 768 787 992 787 1261 
C 787 1536 877 1760 1069 1926 
C 1267 2112 1549 2202 1920 2202 
z
" transform="scale(0.015625)"/>
       </defs>
       <use xlink:href="#PingFangHK-Regular-1b"/>
       <use xlink:href="#PingFangHK-Regular-13" transform="translate(60 0)"/>
       <use xlink:href="#PingFangHK-Regular-13" transform="translate(120 0)"/>
      </g>
     </g>
    </g>
    <g id="xtick_6">
     <g id="line2d_11">
      <path d="M 373.596562 243.52 
L 373.596562 22.66 
" clip-path="url(#pf714fd7458)" style="fill: none; stroke: #d0d7de; stroke-opacity: 0.35; stroke-width: 0.6; stroke-linecap: square"/>
     </g>
     <g id="line2d_12">
      <g>
       <use xlink:href="#m9e6b99fb8a" x="373.596562" y="243.52" style="fill: #24292f; stroke: #24292f; stroke-width: 0.8"/>
      </g>
     </g>
     <g id="text_6">
      <!-- 1000 -->
      <g style="fill: #24292f" transform="translate(363.692344 258.26) scale(0.09 -0.09)">
       <defs>
        <path id="PingFangHK-Regular-14" d="M 1472 4570 
C 1318 4397 1139 4243 922 4102 
C 704 3974 486 3885 282 3827 
L 282 3302 
C 710 3430 1069 3635 1357 3930 
L 1357 0 
L 1882 0 
L 1882 4570 
L 1472 4570 
z
" transform="scale(0.015625)"/>
       </defs>
       <use xlink:href="#PingFangHK-Regular-14"/>
       <use xlink:href="#PingFangHK-Regular-13" transform="translate(40.09375 0)"/>
       <use xlink:href="#PingFangHK-Regular-13" transform="translate(100.09375 0)"/>
       <use xlink:href="#PingFangHK-Regular-13" transform="translate(160.09375 0)"/>
      </g>
     </g>
    </g>
    <g id="text_7">
     <!-- 时间步 $t$ -->
     <g style="fill: #24292f" transform="translate(188.886562 272.12) scale(0.1 -0.1)">
      <defs>
       <path id="PingFangHK-Regular-df8" d="M 2368 4749 
L 525 4749 
L 525 -122 
L 973 -122 
L 973 461 
L 1920 461 
L 1920 32 
L 2368 32 
L 2368 4749 
z
M 973 890 
L 973 2432 
L 1920 2432 
L 1920 890 
L 973 890 
z
M 973 2861 
L 973 4326 
L 1920 4326 
L 1920 2861 
L 973 2861 
z
M 3290 2842 
L 2912 2605 
C 3296 2016 3597 1478 3821 998 
L 4205 1267 
C 3994 1715 3686 2240 3290 2842 
z
M 4749 -576 
C 5146 -576 5344 -371 5344 32 
L 5344 3610 
L 6131 3610 
L 6131 4051 
L 5344 4051 
L 5344 5178 
L 4877 5178 
L 4877 4051 
L 2662 4051 
L 2662 3610 
L 4877 3610 
L 4877 147 
C 4877 -51 4781 -154 4595 -154 
C 4256 -154 3904 -141 3533 -128 
L 3629 -576 
L 4749 -576 
z
" transform="scale(0.015625)"/>
       <path id="PingFangHK-Regular-1cf5" d="M 1958 3494 
L 1958 512 
L 4390 512 
L 4390 3494 
L 1958 3494 
z
M 3962 922 
L 2394 922 
L 2394 1798 
L 3962 1798 
L 3962 922 
z
M 2394 2208 
L 2394 3085 
L 3962 3085 
L 3962 2208 
L 2394 2208 
z
M 5107 -589 
C 5536 -589 5754 -358 5754 90 
L 5754 4909 
L 2822 4909 
L 2822 4480 
L 5306 4480 
L 5306 218 
C 5306 -38 5203 -173 5011 -173 
L 4454 -160 
L 4570 -589 
L 5107 -589 
z
M 634 4166 
L 634 -646 
L 1082 -646 
L 1082 4166 
L 634 4166 
z
M 1562 5286 
L 1139 5101 
C 1427 4755 1690 4358 1933 3910 
L 2342 4128 
C 2118 4550 1856 4934 1562 5286 
z
" transform="scale(0.015625)"/>
       <path id="PingFangHK-Regular-f8d" d="M 3002 5242 
L 3002 3142 
L 1805 3142 
L 1805 4742 
L 1338 4742 
L 1338 3142 
L 358 3142 
L 358 2694 
L 3040 2694 
L 3040 762 
L 3501 762 
L 3501 2694 
L 6042 2694 
L 6042 3142 
L 3469 3142 
L 3469 4026 
L 5408 4026 
L 5408 4467 
L 3469 4467 
L 3469 5242 
L 3002 5242 
z
M 5088 2227 
C 4384 595 2925 -224 710 -224 
L 877 -666 
C 3155 -659 4704 230 5510 2003 
L 5088 2227 
z
M 1894 2406 
C 1523 1843 1062 1350 518 928 
L 806 557 
C 1370 998 1837 1517 2221 2112 
L 1894 2406 
z
" transform="scale(0.015625)"/>
       <path id="PingFangHK-Regular-3" transform="scale(0.015625)"/>
       <path id="DejaVuSans-Oblique-57" d="M 2706 3500 
L 2619 3053 
L 1472 3053 
L 1100 1153 
Q 1081 1047 1072 975 
Q 1063 903 1063 863 
Q 1063 663 1183 572 
Q 1303 481 1569 481 
L 2150 481 
L 2053 0 
L 1503 0 
Q 991 0 739 200 
Q 488 400 488 806 
Q 488 878 497 964 
Q 506 1050 525 1153 
L 897 3053 
L 409 3053 
L 500 3500 
L 978 3500 
L 1172 4494 
L 1747 4494 
L 1556 3500 
L 2706 3500 
z
" transform="scale(0.015625)"/>
      </defs>
      <use xlink:href="#PingFangHK-Regular-df8" transform="translate(0 0.40625)"/>
      <use xlink:href="#PingFangHK-Regular-1cf5" transform="translate(99.999908 0.40625)"/>
      <use xlink:href="#PingFangHK-Regular-f8d" transform="translate(199.999817 0.40625)"/>
      <use xlink:href="#PingFangHK-Regular-3" transform="translate(299.999725 0.40625)"/>
      <use xlink:href="#DejaVuSans-Oblique-57" transform="translate(333.299698 0.40625)"/>
     </g>
    </g>
   </g>
   <g id="matplotlib.axis_2">
    <g id="ytick_1">
     <g id="line2d_13">
      <path d="M 41.476562 239.272692 
L 373.596562 239.272692 
" clip-path="url(#pf714fd7458)" style="fill: none; stroke: #d0d7de; stroke-opacity: 0.35; stroke-width: 0.6; stroke-linecap: square"/>
     </g>
     <g id="line2d_14">
      <defs>
       <path id="ma3e877ad87" d="M 0 0 
L -3.5 0 
" style="stroke: #24292f; stroke-width: 0.8"/>
      </defs>
      <g>
       <use xlink:href="#ma3e877ad87" x="41.476562" y="239.272692" style="fill: #24292f; stroke: #24292f; stroke-width: 0.8"/>
      </g>
     </g>
     <g id="text_8">
      <!-- 0.0 -->
      <g style="fill: #24292f" transform="translate(21.3 243.142692) scale(0.09 -0.09)">
       <defs>
        <path id="PingFangHK-Regular-11" d="M 845 762 
C 730 762 640 723 570 646 
C 493 570 454 480 454 365 
C 454 256 493 166 570 90 
C 640 13 730 -26 845 -26 
C 947 -26 1043 13 1120 90 
C 1197 166 1235 256 1235 365 
C 1235 480 1197 570 1120 646 
C 1043 723 947 762 845 762 
z
" transform="scale(0.015625)"/>
       </defs>
       <use xlink:href="#PingFangHK-Regular-13"/>
       <use xlink:href="#PingFangHK-Regular-11" transform="translate(60 0)"/>
       <use xlink:href="#PingFangHK-Regular-13" transform="translate(86.40625 0)"/>
      </g>
     </g>
    </g>
    <g id="ytick_2">
     <g id="line2d_15">
      <path d="M 41.476562 196.799615 
L 373.596562 196.799615 
" clip-path="url(#pf714fd7458)" style="fill: none; stroke: #d0d7de; stroke-opacity: 0.35; stroke-width: 0.6; stroke-linecap: square"/>
     </g>
     <g id="line2d_16">
      <g>
       <use xlink:href="#ma3e877ad87" x="41.476562" y="196.799615" style="fill: #24292f; stroke: #24292f; stroke-width: 0.8"/>
      </g>
     </g>
     <g id="text_9">
      <!-- 0.2 -->
      <g style="fill: #24292f" transform="translate(21.3 200.669615) scale(0.09 -0.09)">
       <use xlink:href="#PingFangHK-Regular-13"/>
       <use xlink:href="#PingFangHK-Regular-11" transform="translate(60 0)"/>
       <use xlink:href="#PingFangHK-Regular-15" transform="translate(86.40625 0)"/>
      </g>
     </g>
    </g>
    <g id="ytick_3">
     <g id="line2d_17">
      <path d="M 41.476562 154.326538 
L 373.596562 154.326538 
" clip-path="url(#pf714fd7458)" style="fill: none; stroke: #d0d7de; stroke-opacity: 0.35; stroke-width: 0.6; stroke-linecap: square"/>
     </g>
     <g id="line2d_18">
      <g>
       <use xlink:href="#ma3e877ad87" x="41.476562" y="154.326538" style="fill: #24292f; stroke: #24292f; stroke-width: 0.8"/>
      </g>
     </g>
     <g id="text_10">
      <!-- 0.4 -->
      <g style="fill: #24292f" transform="translate(21.3 158.196538) scale(0.09 -0.09)">
       <use xlink:href="#PingFangHK-Regular-13"/>
       <use xlink:href="#PingFangHK-Regular-11" transform="translate(60 0)"/>
       <use xlink:href="#PingFangHK-Regular-17" transform="translate(86.40625 0)"/>
      </g>
     </g>
    </g>
    <g id="ytick_4">
     <g id="line2d_19">
      <path d="M 41.476562 111.853462 
L 373.596562 111.853462 
" clip-path="url(#pf714fd7458)" style="fill: none; stroke: #d0d7de; stroke-opacity: 0.35; stroke-width: 0.6; stroke-linecap: square"/>
     </g>
     <g id="line2d_20">
      <g>
       <use xlink:href="#ma3e877ad87" x="41.476562" y="111.853462" style="fill: #24292f; stroke: #24292f; stroke-width: 0.8"/>
      </g>
     </g>
     <g id="text_11">
      <!-- 0.6 -->
      <g style="fill: #24292f" transform="translate(21.3 115.723462) scale(0.09 -0.09)">
       <use xlink:href="#PingFangHK-Regular-13"/>
       <use xlink:href="#PingFangHK-Regular-11" transform="translate(60 0)"/>
       <use xlink:href="#PingFangHK-Regular-19" transform="translate(86.40625 0)"/>
      </g>
     </g>
    </g>
    <g id="ytick_5">
     <g id="line2d_21">
      <path d="M 41.476562 69.380385 
L 373.596562 69.380385 
" clip-path="url(#pf714fd7458)" style="fill: none; stroke: #d0d7de; stroke-opacity: 0.35; stroke-width: 0.6; stroke-linecap: square"/>
     </g>
     <g id="line2d_22">
      <g>
       <use xlink:href="#ma3e877ad87" x="41.476562" y="69.380385" style="fill: #24292f; stroke: #24292f; stroke-width: 0.8"/>
      </g>
     </g>
     <g id="text_12">
      <!-- 0.8 -->
      <g style="fill: #24292f" transform="translate(21.3 73.250385) scale(0.09 -0.09)">
       <use xlink:href="#PingFangHK-Regular-13"/>
       <use xlink:href="#PingFangHK-Regular-11" transform="translate(60 0)"/>
       <use xlink:href="#PingFangHK-Regular-1b" transform="translate(86.40625 0)"/>
      </g>
     </g>
    </g>
    <g id="ytick_6">
     <g id="line2d_23">
      <path d="M 41.476562 26.907308 
L 373.596562 26.907308 
" clip-path="url(#pf714fd7458)" style="fill: none; stroke: #d0d7de; stroke-opacity: 0.35; stroke-width: 0.6; stroke-linecap: square"/>
     </g>
     <g id="line2d_24">
      <g>
       <use xlink:href="#ma3e877ad87" x="41.476562" y="26.907308" style="fill: #24292f; stroke: #24292f; stroke-width: 0.8"/>
      </g>
     </g>
     <g id="text_13">
      <!-- 1.0 -->
      <g style="fill: #24292f" transform="translate(23.091563 30.777308) scale(0.09 -0.09)">
       <use xlink:href="#PingFangHK-Regular-14"/>
       <use xlink:href="#PingFangHK-Regular-11" transform="translate(40.09375 0)"/>
       <use xlink:href="#PingFangHK-Regular-13" transform="translate(66.5 0)"/>
      </g>
     </g>
    </g>
    <g id="text_14">
     <!-- $\bar{\alpha}_t$ -->
     <g style="fill: #24292f" transform="translate(15.8 137.99) rotate(-90) scale(0.1 -0.1)">
      <defs>
       <path id="DejaVuSans-2b5" d="M -2522 4769 
L -654 4769 
L -654 4306 
L -2522 4306 
L -2522 4769 
z
" transform="scale(0.015625)"/>
       <path id="DejaVuSans-Oblique-345" d="M 2619 1628 
L 2622 2350 
Q 2625 3088 2069 3091 
Q 1653 3094 1394 2747 
Q 1069 2319 959 1747 
Q 825 1059 994 731 
Q 1169 397 1547 397 
Q 1966 397 2319 1063 
L 2619 1628 
z
M 2166 3578 
Q 3141 3594 3128 2584 
Q 3128 2584 3616 3500 
L 4128 3500 
L 3119 1603 
L 3109 919 
Q 3109 766 3194 638 
Q 3291 488 3391 488 
L 3669 488 
L 3575 0 
L 3228 0 
Q 2934 0 2722 263 
Q 2622 394 2619 669 
Q 2416 334 2066 50 
Q 1900 -81 1453 -78 
Q 722 -72 456 397 
Q 184 884 353 1747 
Q 534 2675 1009 3097 
Q 1544 3569 2166 3578 
z
" transform="scale(0.015625)"/>
      </defs>
      <use xlink:href="#DejaVuSans-2b5" transform="translate(65.885742 1.484375)"/>
      <use xlink:href="#DejaVuSans-Oblique-345" transform="translate(0 0.109375)"/>
      <use xlink:href="#DejaVuSans-Oblique-57" transform="translate(66.875 -14.890576) scale(0.7)"/>
     </g>
    </g>
   </g>
   <g id="line2d_25">
    <path d="M 41.808683 26.928544 
L 44.133522 27.195479 
L 46.458362 27.668772 
L 48.783203 28.347069 
L 51.440162 29.370762 
L 54.097122 30.6558 
L 56.754082 32.197358 
L 59.411042 33.989666 
L 62.400122 36.297384 
L 65.389202 38.903156 
L 68.378282 41.794853 
L 71.699483 45.32693 
L 75.020682 49.175604 
L 78.674003 53.749232 
L 82.659442 59.110335 
L 86.977002 65.308998 
L 91.626682 72.377492 
L 96.940602 80.86627 
L 103.250882 91.373949 
L 112.550242 107.349242 
L 127.495642 133.038028 
L 134.470162 144.573195 
L 140.448322 154.059559 
L 146.094362 162.603156 
L 151.408282 170.226511 
L 156.390083 176.974665 
L 161.039762 182.906577 
L 165.689442 188.473841 
L 170.007002 193.312071 
L 174.324562 197.830342 
L 178.642122 202.031041 
L 182.959682 205.919362 
L 187.277242 209.50297 
L 191.594802 212.791637 
L 195.912363 215.796896 
L 200.229922 218.531699 
L 204.547482 221.010095 
L 208.865042 223.246922 
L 213.514722 225.403263 
L 218.164402 227.316723 
L 223.146202 229.119472 
L 228.128002 230.689385 
L 233.441922 232.133118 
L 239.087962 233.435072 
L 245.066122 234.585659 
L 251.708522 235.628185 
L 258.683042 236.498451 
L 266.653923 237.263654 
L 275.621162 237.894613 
L 286.249002 238.407807 
L 299.201683 238.79601 
L 316.139802 239.063897 
L 341.380922 239.217356 
L 373.596562 239.264122 
L 373.596562 239.264122 
" clip-path="url(#pf714fd7458)" style="fill: none; stroke: #e8710a; stroke-width: 2.2; stroke-linecap: square"/>
   </g>
   <g id="line2d_26">
    <path d="M 41.808683 26.916075 
L 46.790482 27.171254 
L 51.772283 27.657845 
L 56.754082 28.374786 
L 61.735883 29.320509 
L 66.717682 30.492949 
L 71.699483 31.889543 
L 76.681282 33.50724 
L 81.995203 35.472495 
L 87.309123 37.680402 
L 92.623042 40.125471 
L 98.269082 42.976407 
L 103.915122 46.080207 
L 109.893282 49.632502 
L 115.871443 53.447334 
L 122.181722 57.745646 
L 128.492003 62.308024 
L 135.134402 67.378214 
L 142.108923 72.976175 
L 149.747682 79.401647 
L 157.718562 86.399873 
L 166.353682 94.274572 
L 176.317282 103.673787 
L 187.941482 114.958246 
L 204.879602 131.749583 
L 228.128002 154.764892 
L 239.752202 165.953803 
L 249.715802 175.238132 
L 258.350922 182.989438 
L 266.321802 189.854854 
L 273.960562 196.136722 
L 280.935083 201.590242 
L 287.577482 206.511627 
L 293.887763 210.923016 
L 300.198042 215.061497 
L 306.176202 218.717265 
L 311.822242 221.922692 
L 317.468282 224.878758 
L 323.114322 227.577167 
L 328.428242 229.874685 
L 333.742162 231.93154 
L 339.056083 233.742618 
L 344.037882 235.213276 
L 349.019682 236.460743 
L 354.001482 237.482293 
L 358.983282 238.275694 
L 363.965082 238.839211 
L 368.946882 239.171614 
L 373.596562 239.272692 
L 373.596562 239.272692 
" clip-path="url(#pf714fd7458)" style="fill: none; stroke: #4c6ef5; stroke-width: 2.2; stroke-linecap: square"/>
   </g>
   <g id="line2d_27">
    <path d="M 127.495642 243.52 
L 127.495642 22.66 
" clip-path="url(#pf714fd7458)" style="fill: none; stroke-dasharray: 1.2,1.98; stroke-dashoffset: 0; stroke: #e8710a; stroke-opacity: 0.7; stroke-width: 1.2"/>
   </g>
   <g id="patch_3">
    <path d="M 41.476562 243.52 
L 41.476562 22.66 
" style="fill: none; stroke: #d0d7de; stroke-width: 0.8; stroke-linejoin: miter; stroke-linecap: square"/>
   </g>
   <g id="patch_4">
    <path d="M 373.596562 243.52 
L 373.596562 22.66 
" style="fill: none; stroke: #d0d7de; stroke-width: 0.8; stroke-linejoin: miter; stroke-linecap: square"/>
   </g>
   <g id="patch_5">
    <path d="M 41.476562 243.52 
L 373.596562 243.52 
" style="fill: none; stroke: #d0d7de; stroke-width: 0.8; stroke-linejoin: miter; stroke-linecap: square"/>
   </g>
   <g id="patch_6">
    <path d="M 41.476562 22.66 
L 373.596562 22.66 
" style="fill: none; stroke: #d0d7de; stroke-width: 0.8; stroke-linejoin: miter; stroke-linecap: square"/>
   </g>
   <g id="patch_7">
    <path d="M 203.651625 86.358303 
Q 166.425415 109.201472 130.05684 131.518369 
" style="fill: none; opacity: 0.8; stroke: #24292f; stroke-width: 0.9; stroke-linecap: round"/>
    <path d="M 133.843866 131.189076 
L 130.05684 131.518369 
L 132.065622 128.291172 
" style="fill: none; opacity: 0.8; stroke: #24292f; stroke-width: 0.9; stroke-linecap: round"/>
   </g>
   <g id="text_15">
    <!-- linear 在 t≈259 就丢掉一半信号 -->
    <g style="fill: #24292f" transform="translate(154.065243 82.122308) scale(0.085 -0.085)">
     <defs>
      <path id="PingFangHK-Regular-4f" d="M 499 4659 
L 499 0 
L 1005 0 
L 1005 4659 
L 499 4659 
z
" transform="scale(0.015625)"/>
      <path id="PingFangHK-Regular-4c" d="M 819 4557 
C 710 4557 621 4525 544 4448 
C 467 4384 435 4294 435 4179 
C 435 4070 467 3981 544 3904 
C 621 3834 710 3795 819 3795 
C 928 3795 1018 3834 1094 3904 
C 1171 3981 1210 4070 1210 4179 
C 1210 4294 1171 4384 1094 4448 
C 1018 4525 928 4557 819 4557 
z
M 563 3309 
L 563 0 
L 1075 0 
L 1075 3309 
L 563 3309 
z
" transform="scale(0.015625)"/>
      <path id="PingFangHK-Regular-51" d="M 1946 3398 
C 1728 3398 1530 3347 1350 3245 
C 1171 3149 1024 3008 909 2822 
L 909 3309 
L 397 3309 
L 397 0 
L 909 0 
L 909 1997 
C 928 2298 1024 2534 1203 2714 
C 1370 2880 1568 2963 1798 2963 
C 2374 2963 2669 2643 2669 1997 
L 2669 0 
L 3181 0 
L 3181 2035 
C 3181 2944 2765 3398 1946 3398 
z
" transform="scale(0.015625)"/>
      <path id="PingFangHK-Regular-48" d="M 1760 3398 
C 1280 3398 902 3226 621 2880 
C 339 2554 205 2144 205 1658 
C 205 1120 346 698 640 378 
C 922 70 1306 -90 1779 -90 
C 2208 -90 2560 38 2835 282 
C 3059 486 3206 742 3283 1062 
L 2771 1062 
C 2688 832 2579 659 2438 544 
C 2272 410 2048 339 1779 339 
C 1466 339 1216 442 1037 646 
C 858 851 762 1139 736 1510 
L 3347 1510 
C 3334 2086 3206 2541 2963 2861 
C 2694 3219 2291 3398 1760 3398 
z
M 1773 2970 
C 2400 2970 2752 2618 2816 1907 
L 749 1907 
C 781 2234 883 2490 1062 2682 
C 1242 2874 1478 2970 1773 2970 
z
" transform="scale(0.015625)"/>
      <path id="PingFangHK-Regular-44" d="M 1837 3398 
C 1440 3398 1126 3322 883 3168 
C 614 3002 442 2739 371 2394 
L 877 2355 
C 928 2566 1037 2726 1210 2829 
C 1363 2931 1562 2976 1805 2976 
C 2381 2976 2669 2701 2669 2144 
L 2669 1971 
L 1875 1958 
C 1376 1952 992 1856 723 1677 
C 416 1485 269 1203 269 826 
C 269 557 371 333 576 160 
C 774 -6 1037 -90 1370 -90 
C 1677 -90 1952 -19 2195 115 
C 2400 230 2573 378 2701 557 
L 2701 0 
L 3181 0 
L 3181 2125 
C 3181 2509 3078 2810 2886 3027 
C 2656 3277 2310 3398 1837 3398 
z
M 2669 1587 
L 2669 1306 
C 2669 1050 2547 819 2310 621 
C 2067 416 1792 314 1478 314 
C 1274 314 1107 365 979 461 
C 851 563 794 685 794 838 
C 794 1318 1165 1562 1907 1574 
L 2669 1587 
z
" transform="scale(0.015625)"/>
      <path id="PingFangHK-Regular-55" d="M 1850 3398 
C 1619 3398 1421 3328 1248 3187 
C 1107 3078 992 2925 902 2733 
L 902 3309 
L 397 3309 
L 397 0 
L 902 0 
L 902 1754 
C 902 2061 986 2323 1165 2541 
C 1338 2771 1555 2880 1811 2880 
C 1971 2880 2138 2861 2304 2810 
L 2304 3322 
C 2182 3373 2029 3398 1850 3398 
z
" transform="scale(0.015625)"/>
      <path id="PingFangHK-Regular-8c1" d="M 2298 2246 
L 2298 1798 
L 3763 1798 
L 3763 32 
L 2035 32 
L 2035 -422 
L 6048 -422 
L 6048 32 
L 4230 32 
L 4230 1798 
L 5760 1798 
L 5760 2246 
L 4230 2246 
L 4230 3437 
L 3763 3437 
L 3763 2246 
L 2298 2246 
z
M 1267 1965 
L 1267 -659 
L 1722 -659 
L 1722 2490 
C 2067 2925 2368 3398 2618 3904 
L 6042 3904 
L 6042 4358 
L 2822 4358 
C 2938 4634 3034 4922 3123 5216 
L 2643 5274 
C 2554 4960 2438 4653 2310 4358 
L 448 4358 
L 448 3904 
L 2093 3904 
C 1645 3053 1024 2298 224 1638 
L 512 1261 
C 781 1485 1030 1722 1267 1965 
z
" transform="scale(0.015625)"/>
      <path id="PingFangHK-Regular-57" d="M 1280 4378 
L 774 4166 
L 774 3309 
L 109 3309 
L 109 2880 
L 774 2880 
L 774 774 
C 774 525 826 339 934 211 
C 1050 70 1248 0 1517 0 
L 2016 0 
L 2016 429 
L 1594 429 
C 1478 429 1395 461 1350 512 
C 1299 563 1280 653 1280 774 
L 1280 2880 
L 2099 2880 
L 2099 3309 
L 1280 3309 
L 1280 4378 
z
" transform="scale(0.015625)"/>
      <path id="PingFangHK-Regular-180" d="M 1600 3482 
C 1382 3482 1178 3418 986 3277 
C 845 3174 691 3008 525 2784 
L 838 2528 
C 1094 2880 1350 3053 1606 3053 
C 1798 3053 2086 2950 2458 2746 
C 2822 2554 3130 2451 3386 2451 
C 3610 2451 3814 2522 4000 2650 
C 4128 2752 4288 2925 4480 3155 
L 4166 3418 
C 3898 3059 3635 2874 3379 2874 
C 3187 2874 2906 2976 2534 3181 
C 2163 3386 1850 3482 1600 3482 
z
M 1600 2138 
C 1382 2138 1178 2067 986 1926 
C 845 1824 691 1658 525 1440 
L 838 1178 
C 1094 1536 1350 1709 1606 1709 
C 1798 1709 2086 1613 2458 1408 
C 2822 1203 3130 1101 3386 1101 
C 3610 1101 3814 1171 4000 1306 
C 4128 1408 4288 1574 4480 1811 
L 4166 2074 
C 3898 1715 3635 1530 3379 1530 
C 3187 1530 2906 1632 2534 1830 
C 2163 2035 1850 2138 1600 2138 
z
" transform="scale(0.015625)"/>
      <path id="PingFangHK-Regular-18" d="M 672 4570 
L 429 2048 
L 928 2048 
C 1018 2227 1158 2368 1338 2458 
C 1510 2554 1702 2598 1920 2598 
C 2253 2598 2515 2502 2701 2298 
C 2893 2099 2995 1818 2995 1453 
C 2995 1133 2886 870 2682 666 
C 2470 461 2208 358 1888 358 
C 1606 358 1370 429 1190 563 
C 986 717 870 941 845 1229 
L 326 1229 
C 358 813 531 480 851 237 
C 1133 19 1478 -90 1882 -90 
C 2330 -90 2714 51 3021 326 
C 3347 621 3514 998 3514 1459 
C 3514 1952 3373 2336 3104 2618 
C 2835 2893 2483 3027 2048 3027 
C 1837 3027 1645 2995 1466 2918 
C 1267 2842 1101 2726 973 2573 
L 947 2573 
L 1101 4102 
L 3328 4102 
L 3328 4570 
L 672 4570 
z
" transform="scale(0.015625)"/>
      <path id="PingFangHK-Regular-1c" d="M 1869 4659 
C 1421 4659 1050 4512 762 4211 
C 467 3917 326 3546 326 3091 
C 326 2650 454 2291 717 2016 
C 986 1728 1338 1581 1779 1581 
C 2048 1581 2285 1651 2490 1779 
C 2701 1914 2867 2099 2982 2330 
L 3008 2330 
C 3008 2253 3014 2195 3014 2163 
C 3014 1651 2912 1222 2714 883 
C 2502 531 2221 352 1869 352 
C 1331 352 1018 614 922 1133 
L 403 1133 
C 525 320 1011 -90 1862 -90 
C 2374 -90 2784 154 3091 627 
C 3373 1088 3520 1677 3520 2406 
C 3520 3110 3386 3661 3117 4045 
C 2835 4454 2419 4659 1869 4659 
z
M 1882 4218 
C 2195 4218 2451 4109 2643 3891 
C 2829 3686 2925 3424 2925 3104 
C 2925 2790 2822 2528 2630 2323 
C 2426 2118 2176 2016 1882 2016 
C 1562 2016 1312 2118 1126 2317 
C 934 2509 845 2771 845 3091 
C 845 3424 934 3693 1126 3904 
C 1318 4115 1568 4218 1882 4218 
z
" transform="scale(0.015625)"/>
      <path id="PingFangHK-Regular-75b0" d="M 371 4576 
L 371 4154 
L 3283 4154 
L 3283 4576 
L 2106 4576 
C 2016 4819 1920 5043 1824 5235 
L 1338 5158 
C 1453 4986 1555 4794 1645 4576 
L 371 4576 
z
M 646 3629 
L 646 2029 
L 1600 2029 
L 1600 26 
C 1600 -122 1530 -198 1402 -198 
C 1261 -198 1120 -186 966 -166 
L 1056 -582 
L 1549 -582 
C 1869 -582 2035 -416 2035 -83 
L 2035 2029 
L 2957 2029 
L 2957 3629 
L 646 3629 
z
M 2534 2426 
L 1069 2426 
L 1069 3238 
L 2534 3238 
L 2534 2426 
z
M 787 1677 
C 634 1082 461 589 262 198 
L 640 58 
C 858 493 1030 998 1171 1574 
L 787 1677 
z
M 2726 1690 
L 2349 1587 
C 2522 1190 2662 787 2778 378 
L 3149 518 
C 3046 877 2906 1267 2726 1690 
z
M 5082 5120 
L 4736 4909 
C 5030 4570 5261 4262 5427 3981 
L 5766 4218 
C 5606 4474 5376 4774 5082 5120 
z
M 3904 5222 
L 3904 3725 
L 3238 3725 
L 3238 3296 
L 3898 3296 
C 3859 1670 3501 474 2822 -282 
L 3149 -570 
C 3891 256 4288 1542 4326 3296 
L 5946 3296 
L 5946 3725 
L 4333 3725 
L 4333 5222 
L 3904 5222 
z
M 5530 -538 
C 5722 -538 5856 -474 5946 -352 
C 6048 -211 6112 186 6150 838 
L 5747 966 
C 5728 435 5696 115 5645 13 
C 5606 -77 5542 -122 5453 -122 
L 5165 -122 
C 5062 -122 5018 -64 5018 45 
L 5018 2893 
L 4589 2893 
L 4589 -45 
C 4589 -371 4736 -538 5037 -538 
L 5530 -538 
z
" transform="scale(0.015625)"/>
      <path id="PingFangHK-Regular-4f6" d="M 5453 5146 
C 4179 4896 2579 4768 653 4768 
L 794 4365 
C 1574 4365 2304 4390 2970 4429 
L 2970 3565 
L 896 3565 
L 896 3136 
L 2970 3136 
L 2970 2227 
L 333 2227 
L 333 1779 
L 2202 1779 
C 1677 794 1254 192 934 -32 
C 915 -45 883 -64 838 -77 
L 941 -486 
C 2426 -397 3795 -269 5056 -115 
C 5184 -301 5299 -486 5402 -666 
L 5779 -397 
C 5472 109 5037 704 4467 1382 
L 4109 1158 
C 4352 858 4576 570 4781 288 
C 3706 141 2624 32 1536 -38 
C 1856 320 2234 922 2669 1779 
L 6080 1779 
L 6080 2227 
L 3443 2227 
L 3443 3136 
L 5517 3136 
L 5517 3565 
L 3443 3565 
L 3443 4461 
C 4288 4525 5030 4627 5664 4768 
L 5453 5146 
z
" transform="scale(0.015625)"/>
      <path id="PingFangHK-Regular-d27" d="M 1037 -576 
C 1414 -576 1606 -384 1606 -13 
L 1606 1837 
C 1818 1926 2022 2029 2227 2131 
L 2227 2611 
C 2022 2502 1811 2400 1606 2310 
L 1606 3558 
L 2259 3558 
L 2259 4000 
L 1606 4000 
L 1606 5210 
L 1133 5210 
L 1133 4000 
L 352 4000 
L 352 3558 
L 1133 3558 
L 1133 2125 
C 838 2022 538 1933 237 1862 
L 358 1376 
C 621 1453 877 1542 1133 1638 
L 1133 109 
C 1133 -58 1043 -147 870 -147 
C 717 -147 550 -134 378 -115 
L 480 -576 
L 1037 -576 
z
M 3795 5242 
L 3795 3840 
L 2701 3840 
L 2701 1427 
L 3936 1427 
L 3936 787 
L 2253 787 
L 2253 346 
L 3936 346 
L 3936 -640 
L 4397 -640 
L 4397 346 
L 6099 346 
L 6099 787 
L 4397 787 
L 4397 1427 
L 5658 1427 
L 5658 3840 
L 4256 3840 
L 4256 4378 
L 5933 4378 
L 5933 4768 
L 4256 4768 
L 4256 5242 
L 3795 5242 
z
M 5216 1830 
L 3149 1830 
L 3149 2445 
L 5216 2445 
L 5216 1830 
z
M 3149 2829 
L 3149 3430 
L 5216 3430 
L 5216 2829 
L 3149 2829 
z
" transform="scale(0.015625)"/>
      <path id="PingFangHK-Regular-4de" d="M 320 2579 
L 320 2118 
L 6074 2118 
L 6074 2579 
L 320 2579 
z
" transform="scale(0.015625)"/>
      <path id="PingFangHK-Regular-70e" d="M 1350 4998 
L 928 4794 
C 1242 4390 1536 3936 1818 3424 
L 2246 3635 
C 1965 4128 1664 4582 1350 4998 
z
M 781 3130 
L 781 2682 
L 2963 2682 
L 2963 1542 
L 371 1542 
L 371 1094 
L 2963 1094 
L 2963 -666 
L 3437 -666 
L 3437 1094 
L 6029 1094 
L 6029 1542 
L 3437 1542 
L 3437 2682 
L 5574 2682 
L 5574 3130 
L 3437 3130 
L 3437 5235 
L 2963 5235 
L 2963 3130 
L 781 3130 
z
M 4979 4979 
C 4781 4525 4512 4070 4166 3616 
L 4576 3405 
C 4909 3853 5184 4307 5389 4781 
L 4979 4979 
z
" transform="scale(0.015625)"/>
      <path id="PingFangHK-Regular-5de" d="M 986 2944 
L 986 -653 
L 1440 -653 
L 1440 3699 
C 1664 4134 1850 4595 2003 5088 
L 1574 5286 
C 1286 4288 832 3398 205 2624 
L 352 2131 
C 582 2387 794 2662 986 2944 
z
M 1978 4384 
L 1978 3949 
L 6144 3949 
L 6144 4384 
L 4128 4384 
L 4371 4474 
C 4294 4710 4192 4966 4058 5248 
L 3616 5126 
C 3744 4883 3853 4640 3949 4384 
L 1978 4384 
z
M 2566 3430 
L 2566 3014 
L 5594 3014 
L 5594 3430 
L 2566 3430 
z
M 2566 2528 
L 2566 2106 
L 5594 2106 
L 5594 2528 
L 2566 2528 
z
M 5709 1581 
L 2445 1581 
L 2445 -640 
L 2893 -640 
L 2893 -294 
L 5261 -294 
L 5261 -640 
L 5709 -640 
L 5709 1581 
z
M 2893 141 
L 2893 1152 
L 5261 1152 
L 5261 141 
L 2893 141 
z
" transform="scale(0.015625)"/>
      <path id="PingFangHK-Regular-769" d="M 1325 4998 
L 1325 3270 
L 5075 3270 
L 5075 4998 
L 1325 4998 
z
M 4602 3686 
L 1798 3686 
L 1798 4582 
L 4602 4582 
L 4602 3686 
z
M 1786 2278 
L 1485 1114 
L 4698 1114 
C 4659 538 4602 179 4525 38 
C 4442 -102 4230 -173 3885 -173 
C 3622 -173 3322 -160 2982 -134 
L 3136 -557 
C 3386 -582 3667 -595 3987 -595 
C 4422 -595 4717 -499 4870 -307 
C 5024 -109 5126 506 5165 1530 
L 2035 1530 
L 2253 2278 
L 6074 2278 
L 6074 2720 
L 320 2720 
L 320 2278 
L 1786 2278 
z
" transform="scale(0.015625)"/>
     </defs>
     <use xlink:href="#PingFangHK-Regular-4f"/>
     <use xlink:href="#PingFangHK-Regular-4c" transform="translate(23.5 0)"/>
     <use xlink:href="#PingFangHK-Regular-51" transform="translate(49.09375 0)"/>
     <use xlink:href="#PingFangHK-Regular-48" transform="translate(105 0)"/>
     <use xlink:href="#PingFangHK-Regular-44" transform="translate(160.5 0)"/>
     <use xlink:href="#PingFangHK-Regular-55" transform="translate(216.40625 0)"/>
     <use xlink:href="#PingFangHK-Regular-3" transform="translate(252.90625 0)"/>
     <use xlink:href="#PingFangHK-Regular-8c1" transform="translate(286.203125 0)"/>
     <use xlink:href="#PingFangHK-Regular-3" transform="translate(386.203125 0)"/>
     <use xlink:href="#PingFangHK-Regular-57" transform="translate(419.5 0)"/>
     <use xlink:href="#PingFangHK-Regular-180" transform="translate(455 0)"/>
     <use xlink:href="#PingFangHK-Regular-15" transform="translate(533.203125 0)"/>
     <use xlink:href="#PingFangHK-Regular-18" transform="translate(593.203125 0)"/>
     <use xlink:href="#PingFangHK-Regular-1c" transform="translate(653.203125 0)"/>
     <use xlink:href="#PingFangHK-Regular-3" transform="translate(713.203125 0)"/>
     <use xlink:href="#PingFangHK-Regular-75b0" transform="translate(746.5 0)"/>
     <use xlink:href="#PingFangHK-Regular-4f6" transform="translate(846.5 0)"/>
     <use xlink:href="#PingFangHK-Regular-d27" transform="translate(946.5 0)"/>
     <use xlink:href="#PingFangHK-Regular-4de" transform="translate(1046.5 0)"/>
     <use xlink:href="#PingFangHK-Regular-70e" transform="translate(1146.5 0)"/>
     <use xlink:href="#PingFangHK-Regular-5de" transform="translate(1246.5 0)"/>
     <use xlink:href="#PingFangHK-Regular-769" transform="translate(1346.5 0)"/>
    </g>
   </g>
   <g id="text_16">
    <!-- 信号残留比例 $\bar{\alpha}_t$ 的衰减 -->
    <g style="fill: #24292f" transform="translate(149.016562 16.66) scale(0.11 -0.11)">
     <defs>
      <path id="PingFangHK-Regular-8eb7" d="M 1107 4435 
C 979 3354 698 2541 262 1997 
L 493 1587 
C 838 1958 1107 2470 1299 3130 
L 2176 3130 
C 2099 2656 1997 2214 1856 1811 
C 1632 2003 1402 2150 1171 2266 
L 979 1901 
C 1229 1779 1466 1613 1696 1408 
C 1382 698 947 147 384 -237 
L 608 -646 
C 1690 83 2349 1357 2592 3162 
L 2592 3558 
L 1408 3558 
C 1466 3827 1517 4122 1562 4435 
L 2822 4435 
L 2822 4870 
L 403 4870 
L 403 4435 
L 1107 4435 
z
M 5491 1747 
C 5235 1427 4954 1146 4640 890 
C 4544 1146 4467 1434 4403 1766 
L 6048 2061 
L 5978 2483 
L 4339 2182 
C 4314 2368 4294 2566 4282 2778 
L 5638 3008 
L 5574 3418 
L 4256 3200 
C 4243 3379 4237 3571 4237 3763 
L 5747 3974 
L 5690 4397 
L 4230 4192 
L 4230 5242 
L 3763 5242 
L 3763 4128 
L 2822 3994 
L 2886 3578 
L 3763 3699 
C 3763 3507 3770 3315 3782 3123 
L 2982 2989 
L 3046 2573 
L 3814 2701 
C 3827 2496 3853 2298 3885 2099 
L 2790 1901 
L 2854 1485 
L 3962 1683 
C 3962 1658 3968 1632 3981 1594 
C 4058 1235 4160 915 4282 627 
C 3770 282 3174 26 2502 -154 
L 2771 -525 
C 3379 -365 3949 -109 4474 237 
C 4512 166 4550 96 4602 32 
C 4877 -352 5165 -544 5459 -550 
C 5754 -550 5978 -173 6131 570 
L 5734 819 
C 5645 230 5536 -64 5408 -64 
C 5248 -64 5069 96 4864 410 
L 4819 486 
C 5184 774 5530 1114 5850 1510 
L 5491 1747 
z
M 4954 5261 
L 4614 5050 
C 4864 4813 5062 4595 5210 4390 
L 5549 4634 
C 5408 4813 5210 5024 4954 5261 
z
" transform="scale(0.015625)"/>
      <path id="PingFangHK-Regular-12b8" d="M 5446 2208 
L 979 2208 
L 979 -646 
L 1434 -646 
L 1434 -352 
L 4992 -352 
L 4992 -640 
L 5446 -640 
L 5446 2208 
z
M 1434 77 
L 1434 717 
L 3002 717 
L 3002 77 
L 1434 77 
z
M 3462 77 
L 3462 717 
L 4992 717 
L 4992 77 
L 3462 77 
z
M 1434 1126 
L 1434 1779 
L 3002 1779 
L 3002 1126 
L 1434 1126 
z
M 3462 1779 
L 4992 1779 
L 4992 1126 
L 3462 1126 
L 3462 1779 
z
M 2477 4282 
L 2048 4154 
C 2150 3910 2246 3654 2336 3392 
C 2035 3251 1626 3110 1114 2963 
L 1114 4352 
C 1862 4442 2477 4608 2963 4864 
L 2733 5248 
C 2182 4979 1498 4800 666 4723 
L 666 3136 
C 666 3002 595 2893 454 2810 
L 621 2387 
C 1370 2573 1990 2771 2477 2982 
C 2541 2790 2598 2592 2656 2387 
L 3098 2547 
C 2957 3072 2746 3648 2477 4282 
z
M 3891 4506 
C 3840 4115 3770 3795 3680 3546 
C 3565 3270 3405 3014 3194 2778 
L 3462 2432 
C 3731 2707 3936 3014 4077 3354 
C 4186 3642 4269 4026 4333 4506 
L 5299 4506 
C 5293 3885 5274 3482 5235 3290 
C 5190 3027 5069 2893 4864 2880 
C 4704 2880 4506 2893 4269 2906 
L 4403 2496 
C 4595 2483 4768 2477 4915 2477 
C 5286 2490 5517 2669 5619 3027 
C 5696 3309 5747 3955 5760 4960 
L 3206 4960 
L 3206 4506 
L 3891 4506 
z
" transform="scale(0.015625)"/>
      <path id="PingFangHK-Regular-7a49" d="M 1254 2886 
L 2899 2886 
L 2899 3334 
L 1254 3334 
L 1254 5107 
L 794 5107 
L 794 154 
C 794 38 742 -51 640 -115 
L 781 -544 
C 1587 -371 2342 -173 3046 58 
L 2931 486 
C 2374 307 1818 154 1254 26 
L 1254 2886 
z
M 5203 -461 
C 5434 -454 5613 -384 5741 -256 
C 5875 -102 5971 352 6029 1094 
L 5587 1235 
C 5562 582 5491 205 5389 96 
C 5312 19 5210 -19 5088 -19 
L 4128 -19 
C 3936 -19 3846 77 3846 262 
L 3846 2829 
L 5818 2950 
L 5818 3398 
L 3846 3277 
L 3846 5152 
L 3379 5152 
L 3379 179 
C 3379 -243 3584 -461 3994 -461 
L 5203 -461 
z
" transform="scale(0.015625)"/>
      <path id="PingFangHK-Regular-5ba" d="M 2016 4858 
L 2016 4416 
L 2515 4416 
C 2413 3283 2112 2387 1613 1734 
L 1843 1286 
C 1990 1472 2125 1677 2253 1901 
C 2515 1734 2784 1523 3053 1261 
C 2758 634 2355 141 1843 -211 
L 2074 -621 
C 3123 96 3770 1338 4000 3110 
L 4000 3507 
L 2822 3507 
C 2880 3795 2925 4096 2957 4416 
L 4122 4416 
L 4122 4858 
L 2016 4858 
z
M 2438 2278 
C 2547 2528 2643 2797 2720 3085 
L 3571 3085 
C 3494 2586 3386 2118 3232 1696 
C 2982 1914 2720 2112 2438 2278 
z
M 5286 -595 
C 5670 -595 5869 -397 5869 -13 
L 5869 5210 
L 5408 5210 
L 5408 102 
C 5408 -90 5312 -186 5126 -186 
C 4922 -186 4710 -173 4480 -154 
L 4582 -595 
L 5286 -595 
z
M 877 2829 
L 877 -653 
L 1338 -653 
L 1338 3635 
C 1555 4083 1741 4557 1882 5062 
L 1446 5261 
C 1190 4269 781 3392 218 2624 
L 371 2138 
C 550 2355 717 2586 877 2829 
z
M 4397 4621 
L 4397 653 
L 4819 653 
L 4819 4621 
L 4397 4621 
z
" transform="scale(0.015625)"/>
      <path id="PingFangHK-Regular-1331" d="M 2586 4122 
L 1555 4122 
C 1683 4442 1779 4794 1856 5171 
L 1395 5235 
C 1338 4851 1248 4480 1120 4122 
L 525 4122 
L 525 -429 
L 973 -429 
L 973 122 
L 2138 122 
L 2138 -243 
L 2586 -243 
L 2586 4122 
z
M 973 550 
L 973 1952 
L 2138 1952 
L 2138 550 
L 973 550 
z
M 973 2368 
L 973 3686 
L 2138 3686 
L 2138 2368 
L 973 2368 
z
M 3699 2637 
L 3328 2406 
C 3770 1882 4122 1408 4384 986 
L 4749 1242 
C 4506 1638 4160 2106 3699 2637 
z
M 5894 4115 
L 3853 4115 
C 3968 4448 4058 4806 4134 5184 
L 3680 5242 
C 3514 4333 3213 3565 2765 2938 
L 3040 2573 
C 3290 2899 3501 3264 3680 3667 
L 5440 3667 
C 5427 1824 5402 717 5363 358 
C 5312 32 5139 -134 4838 -134 
C 4640 -134 4410 -128 4141 -115 
L 4250 -538 
C 4557 -550 4774 -563 4902 -563 
C 5440 -563 5734 -314 5798 173 
C 5862 672 5894 1990 5894 4115 
z
" transform="scale(0.015625)"/>
      <path id="PingFangHK-Regular-8531" d="M 563 4762 
L 563 4346 
L 5830 4346 
L 5830 4762 
L 3475 4762 
C 3411 4941 3354 5107 3290 5254 
L 2803 5178 
C 2874 5050 2938 4915 3002 4762 
L 563 4762 
z
M 1318 3917 
L 1318 2995 
L 378 2995 
L 378 2573 
L 1318 2573 
L 1318 1664 
L 2432 1664 
C 1958 1203 1229 826 230 525 
L 474 128 
C 979 307 1427 512 1824 742 
L 1824 -77 
C 1824 -154 1779 -218 1690 -256 
L 1786 -659 
C 2554 -506 3206 -346 3750 -179 
L 3680 243 
C 3238 90 2765 -45 2253 -160 
L 2253 1024 
C 2522 1216 2746 1434 2938 1664 
L 5107 1664 
L 5107 2573 
L 6003 2573 
L 6003 2995 
L 5107 2995 
L 5107 3917 
L 1318 3917 
z
M 4666 2061 
L 1766 2061 
L 1766 2605 
L 4666 2605 
L 4666 2061 
z
M 1766 2963 
L 1766 3520 
L 4666 3520 
L 4666 2963 
L 1766 2963 
z
M 5510 1574 
C 5126 1139 4717 826 4288 634 
C 4013 864 3789 1126 3610 1434 
L 3264 1235 
C 3776 326 4653 -294 5894 -640 
L 6163 -237 
C 5574 -96 5069 109 4653 371 
C 5088 589 5478 890 5824 1274 
L 5510 1574 
z
" transform="scale(0.015625)"/>
      <path id="PingFangHK-Regular-67a" d="M 2784 3379 
L 2784 2982 
L 4051 2982 
L 4051 3379 
L 2784 3379 
z
M 2822 2470 
L 2822 582 
L 4064 582 
L 4064 2470 
L 2822 2470 
z
M 3718 928 
L 3168 928 
L 3168 2125 
L 3718 2125 
L 3718 928 
z
M 5498 3386 
C 5370 2707 5184 2112 4954 1594 
C 4915 1792 4883 2010 4858 2240 
C 4787 2810 4742 3373 4717 3936 
L 6016 3936 
L 6016 4365 
L 5709 4365 
C 5606 4621 5498 4858 5382 5062 
L 5005 4998 
C 5133 4806 5248 4595 5350 4365 
L 4698 4365 
C 4685 4653 4678 4941 4678 5229 
L 4250 5229 
C 4250 4941 4250 4653 4262 4365 
L 2048 4365 
L 2048 2157 
C 2029 1094 1811 269 1389 -326 
L 1728 -627 
C 2195 70 2438 998 2464 2157 
L 2464 3936 
L 4288 3936 
C 4326 3213 4397 2528 4506 1875 
C 4557 1581 4608 1306 4672 1056 
C 4326 493 3904 58 3392 -237 
L 3667 -589 
C 4102 -326 4486 45 4819 518 
C 4890 288 4966 96 5056 -58 
C 5248 -410 5453 -589 5677 -589 
C 5997 -589 6163 -109 6170 838 
L 5792 1011 
C 5779 250 5728 -134 5645 -141 
C 5530 -128 5402 51 5261 384 
C 5197 544 5139 730 5088 947 
C 5427 1562 5696 2323 5888 3219 
L 5498 3386 
z
M 691 4966 
L 314 4730 
C 710 4205 1018 3725 1248 3296 
L 1613 3552 
C 1402 3955 1094 4429 691 4966 
z
M 1306 2349 
C 1018 1453 678 570 288 -288 
L 717 -480 
C 1075 352 1408 1242 1702 2189 
L 1306 2349 
z
" transform="scale(0.015625)"/>
     </defs>
     <use xlink:href="#PingFangHK-Regular-5de" transform="translate(0 0.40625)"/>
     <use xlink:href="#PingFangHK-Regular-769" transform="translate(99.999908 0.40625)"/>
     <use xlink:href="#PingFangHK-Regular-8eb7" transform="translate(199.999817 0.40625)"/>
     <use xlink:href="#PingFangHK-Regular-12b8" transform="translate(299.999725 0.40625)"/>
     <use xlink:href="#PingFangHK-Regular-7a49" transform="translate(399.999634 0.40625)"/>
     <use xlink:href="#PingFangHK-Regular-5ba" transform="translate(499.999542 0.40625)"/>
     <use xlink:href="#PingFangHK-Regular-3" transform="translate(599.999451 0.40625)"/>
     <use xlink:href="#DejaVuSans-2b5" transform="translate(699.185165 1.78125)"/>
     <use xlink:href="#DejaVuSans-Oblique-345" transform="translate(633.299423 0.40625)"/>
     <use xlink:href="#DejaVuSans-Oblique-57" transform="translate(700.174423 -14.593701) scale(0.7)"/>
     <use xlink:href="#PingFangHK-Regular-3" transform="translate(730.355087 0.40625)"/>
     <use xlink:href="#PingFangHK-Regular-1331" transform="translate(763.65506 0.40625)"/>
     <use xlink:href="#PingFangHK-Regular-8531" transform="translate(863.654968 0.40625)"/>
     <use xlink:href="#PingFangHK-Regular-67a" transform="translate(963.654877 0.40625)"/>
    </g>
   </g>
   <g id="legend_1">
    <g id="line2d_28">
     <path d="M 252.702656 35.35 
L 261.702656 35.35 
L 270.702656 35.35 
" style="fill: none; stroke: #e8710a; stroke-width: 2.2; stroke-linecap: square"/>
    </g>
    <g id="text_17">
     <!-- linear (DDPM 2020) -->
     <g style="fill: #24292f" transform="translate(277.902656 38.5) scale(0.09 -0.09)">
      <defs>
       <path id="PingFangHK-Regular-b" d="M 1312 5293 
C 1030 4883 813 4442 653 3974 
C 461 3424 371 2867 371 2298 
C 371 1741 461 1184 653 634 
C 813 173 1030 -269 1312 -685 
L 1760 -685 
C 1498 -256 1293 186 1152 640 
C 960 1203 870 1760 870 2304 
C 870 2854 960 3405 1152 3968 
C 1293 4429 1498 4870 1760 5293 
L 1312 5293 
z
" transform="scale(0.015625)"/>
       <path id="PingFangHK-Regular-27" d="M 461 4570 
L 461 0 
L 2048 0 
C 2765 0 3315 211 3699 627 
C 4064 1024 4250 1581 4250 2285 
C 4250 3002 4077 3558 3738 3942 
C 3366 4365 2822 4570 2099 4570 
L 461 4570 
z
M 986 4115 
L 2016 4115 
C 2618 4115 3053 3962 3334 3648 
C 3597 3354 3731 2899 3731 2285 
C 3731 1690 3584 1235 3302 928 
C 3002 614 2554 454 1958 454 
L 986 454 
L 986 4115 
z
" transform="scale(0.015625)"/>
       <path id="PingFangHK-Regular-33" d="M 461 4570 
L 461 0 
L 986 0 
L 986 1869 
L 2323 1869 
C 3373 1869 3904 2323 3904 3226 
C 3904 4122 3379 4570 2330 4570 
L 461 4570 
z
M 986 4115 
L 2298 4115 
C 2662 4115 2931 4045 3110 3891 
C 3290 3757 3379 3533 3379 3226 
C 3379 2918 3290 2694 3117 2547 
C 2938 2400 2669 2323 2298 2323 
L 986 2323 
L 986 4115 
z
" transform="scale(0.015625)"/>
       <path id="PingFangHK-Regular-30" d="M 461 4570 
L 461 0 
L 986 0 
L 986 3635 
L 1005 3635 
L 2586 0 
L 3059 0 
L 4640 3635 
L 4659 3635 
L 4659 0 
L 5184 0 
L 5184 4570 
L 4531 4570 
L 2835 672 
L 2816 672 
L 1114 4570 
L 461 4570 
z
" transform="scale(0.015625)"/>
       <path id="PingFangHK-Regular-c" d="M 371 5293 
C 627 4870 832 4429 979 3968 
C 1165 3405 1261 2854 1261 2304 
C 1261 1760 1165 1203 979 640 
C 832 186 627 -256 371 -685 
L 819 -685 
C 1094 -269 1312 173 1478 634 
C 1664 1184 1760 1741 1760 2298 
C 1760 2867 1664 3424 1478 3974 
C 1312 4442 1094 4883 819 5293 
L 371 5293 
z
" transform="scale(0.015625)"/>
      </defs>
      <use xlink:href="#PingFangHK-Regular-4f"/>
      <use xlink:href="#PingFangHK-Regular-4c" transform="translate(23.5 0)"/>
      <use xlink:href="#PingFangHK-Regular-51" transform="translate(49.09375 0)"/>
      <use xlink:href="#PingFangHK-Regular-48" transform="translate(105 0)"/>
      <use xlink:href="#PingFangHK-Regular-44" transform="translate(160.5 0)"/>
      <use xlink:href="#PingFangHK-Regular-55" transform="translate(216.40625 0)"/>
      <use xlink:href="#PingFangHK-Regular-3" transform="translate(252.90625 0)"/>
      <use xlink:href="#PingFangHK-Regular-b" transform="translate(286.203125 0)"/>
      <use xlink:href="#PingFangHK-Regular-27" transform="translate(319.5 0)"/>
      <use xlink:href="#PingFangHK-Regular-27" transform="translate(390.09375 0)"/>
      <use xlink:href="#PingFangHK-Regular-33" transform="translate(460.6875 0)"/>
      <use xlink:href="#PingFangHK-Regular-30" transform="translate(524.890625 0)"/>
      <use xlink:href="#PingFangHK-Regular-3" transform="translate(613.09375 0)"/>
      <use xlink:href="#PingFangHK-Regular-15" transform="translate(646.390625 0)"/>
      <use xlink:href="#PingFangHK-Regular-13" transform="translate(706.390625 0)"/>
      <use xlink:href="#PingFangHK-Regular-15" transform="translate(766.390625 0)"/>
      <use xlink:href="#PingFangHK-Regular-13" transform="translate(826.390625 0)"/>
      <use xlink:href="#PingFangHK-Regular-c" transform="translate(886.390625 0)"/>
     </g>
    </g>
    <g id="line2d_29">
     <path d="M 252.702656 48.85 
L 261.702656 48.85 
L 270.702656 48.85 
" style="fill: none; stroke: #4c6ef5; stroke-width: 2.2; stroke-linecap: square"/>
    </g>
    <g id="text_18">
     <!-- cosine (iDDPM 2021) -->
     <g style="fill: #24292f" transform="translate(277.902656 52) scale(0.09 -0.09)">
      <defs>
       <path id="PingFangHK-Regular-46" d="M 1824 3398 
C 1331 3398 941 3226 659 2874 
C 397 2554 269 2144 269 1638 
C 269 1133 397 723 659 410 
C 934 77 1318 -90 1818 -90 
C 2227 -90 2554 19 2803 230 
C 3059 448 3219 774 3296 1197 
L 2784 1197 
C 2707 627 2381 339 1818 339 
C 1485 339 1229 461 1056 691 
C 877 922 794 1242 794 1645 
C 794 2048 883 2368 1062 2605 
C 1248 2848 1504 2970 1824 2970 
C 2086 2970 2298 2912 2464 2784 
C 2624 2656 2726 2464 2771 2208 
L 3277 2208 
C 3219 2611 3066 2912 2810 3110 
C 2560 3302 2234 3398 1824 3398 
z
" transform="scale(0.015625)"/>
       <path id="PingFangHK-Regular-52" d="M 1875 3398 
C 1376 3398 986 3232 691 2886 
C 410 2560 269 2150 269 1651 
C 269 1158 410 749 691 429 
C 986 83 1376 -90 1875 -90 
C 2368 -90 2765 83 3066 429 
C 3341 749 3482 1158 3482 1651 
C 3482 2150 3341 2560 3059 2886 
C 2765 3232 2368 3398 1875 3398 
z
M 1875 2970 
C 2221 2970 2496 2835 2701 2566 
C 2874 2323 2963 2022 2963 1651 
C 2963 1293 2874 986 2701 742 
C 2496 474 2221 339 1875 339 
C 1523 339 1248 474 1056 742 
C 877 986 794 1286 794 1651 
C 794 2022 877 2323 1056 2566 
C 1248 2835 1523 2970 1875 2970 
z
" transform="scale(0.015625)"/>
       <path id="PingFangHK-Regular-56" d="M 1568 3398 
C 1197 3398 890 3315 659 3149 
C 410 2982 288 2765 288 2483 
C 288 2202 410 1990 666 1837 
C 819 1734 1094 1638 1485 1542 
C 1843 1453 2080 1382 2189 1331 
C 2394 1229 2502 1088 2502 902 
C 2502 531 2202 339 1613 339 
C 1331 339 1120 390 979 493 
C 838 608 742 794 704 1056 
L 205 1056 
C 282 294 755 -90 1626 -90 
C 2560 -90 3027 256 3027 934 
C 3027 1222 2893 1446 2630 1613 
C 2458 1722 2176 1824 1779 1920 
C 1446 2010 1216 2080 1094 2138 
C 902 2234 813 2355 813 2496 
C 813 2643 883 2758 1024 2842 
C 1152 2931 1331 2970 1562 2970 
C 1824 2970 2029 2918 2170 2816 
C 2298 2726 2381 2573 2426 2368 
L 2925 2368 
C 2835 3059 2387 3398 1568 3398 
z
" transform="scale(0.015625)"/>
      </defs>
      <use xlink:href="#PingFangHK-Regular-46"/>
      <use xlink:href="#PingFangHK-Regular-52" transform="translate(54.703125 0)"/>
      <use xlink:href="#PingFangHK-Regular-56" transform="translate(113.296875 0)"/>
      <use xlink:href="#PingFangHK-Regular-4c" transform="translate(163.796875 0)"/>
      <use xlink:href="#PingFangHK-Regular-51" transform="translate(189.390625 0)"/>
      <use xlink:href="#PingFangHK-Regular-48" transform="translate(245.296875 0)"/>
      <use xlink:href="#PingFangHK-Regular-3" transform="translate(300.796875 0)"/>
      <use xlink:href="#PingFangHK-Regular-b" transform="translate(334.09375 0)"/>
      <use xlink:href="#PingFangHK-Regular-4c" transform="translate(367.390625 0)"/>
      <use xlink:href="#PingFangHK-Regular-27" transform="translate(392.984375 0)"/>
      <use xlink:href="#PingFangHK-Regular-27" transform="translate(463.578125 0)"/>
      <use xlink:href="#PingFangHK-Regular-33" transform="translate(534.171875 0)"/>
      <use xlink:href="#PingFangHK-Regular-30" transform="translate(598.375 0)"/>
      <use xlink:href="#PingFangHK-Regular-3" transform="translate(686.578125 0)"/>
      <use xlink:href="#PingFangHK-Regular-15" transform="translate(719.875 0)"/>
      <use xlink:href="#PingFangHK-Regular-13" transform="translate(779.875 0)"/>
      <use xlink:href="#PingFangHK-Regular-15" transform="translate(839.875 0)"/>
      <use xlink:href="#PingFangHK-Regular-14" transform="translate(899.875 0)"/>
      <use xlink:href="#PingFangHK-Regular-c" transform="translate(939.96875 0)"/>
     </g>
    </g>
   </g>
  </g>
  <g id="axes_2">
   <g id="patch_8">
    <path d="M 433.876562 243.52 
L 765.996562 243.52 
L 765.996562 22.66 
L 433.876562 22.66 
L 433.876562 243.52 
z
" style="fill: none; opacity: 0"/>
   </g>
   <g id="matplotlib.axis_3">
    <g id="xtick_7">
     <g id="line2d_30">
      <path d="M 433.876562 243.52 
L 433.876562 22.66 
" clip-path="url(#p0048c132b2)" style="fill: none; stroke: #d0d7de; stroke-opacity: 0.35; stroke-width: 0.6; stroke-linecap: square"/>
     </g>
     <g id="line2d_31">
      <g>
       <use xlink:href="#m9e6b99fb8a" x="433.876562" y="243.52" style="fill: #24292f; stroke: #24292f; stroke-width: 0.8"/>
      </g>
     </g>
     <g id="text_19">
      <!-- 0 -->
      <g style="fill: #24292f" transform="translate(431.176562 258.26) scale(0.09 -0.09)">
       <use xlink:href="#PingFangHK-Regular-13"/>
      </g>
     </g>
    </g>
    <g id="xtick_8">
     <g id="line2d_32">
      <path d="M 500.300562 243.52 
L 500.300562 22.66 
" clip-path="url(#p0048c132b2)" style="fill: none; stroke: #d0d7de; stroke-opacity: 0.35; stroke-width: 0.6; stroke-linecap: square"/>
     </g>
     <g id="line2d_33">
      <g>
       <use xlink:href="#m9e6b99fb8a" x="500.300562" y="243.52" style="fill: #24292f; stroke: #24292f; stroke-width: 0.8"/>
      </g>
     </g>
     <g id="text_20">
      <!-- 200 -->
      <g style="fill: #24292f" transform="translate(492.200562 258.26) scale(0.09 -0.09)">
       <use xlink:href="#PingFangHK-Regular-15"/>
       <use xlink:href="#PingFangHK-Regular-13" transform="translate(60 0)"/>
       <use xlink:href="#PingFangHK-Regular-13" transform="translate(120 0)"/>
      </g>
     </g>
    </g>
    <g id="xtick_9">
     <g id="line2d_34">
      <path d="M 566.724563 243.52 
L 566.724563 22.66 
" clip-path="url(#p0048c132b2)" style="fill: none; stroke: #d0d7de; stroke-opacity: 0.35; stroke-width: 0.6; stroke-linecap: square"/>
     </g>
     <g id="line2d_35">
      <g>
       <use xlink:href="#m9e6b99fb8a" x="566.724563" y="243.52" style="fill: #24292f; stroke: #24292f; stroke-width: 0.8"/>
      </g>
     </g>
     <g id="text_21">
      <!-- 400 -->
      <g style="fill: #24292f" transform="translate(558.624563 258.26) scale(0.09 -0.09)">
       <use xlink:href="#PingFangHK-Regular-17"/>
       <use xlink:href="#PingFangHK-Regular-13" transform="translate(60 0)"/>
       <use xlink:href="#PingFangHK-Regular-13" transform="translate(120 0)"/>
      </g>
     </g>
    </g>
    <g id="xtick_10">
     <g id="line2d_36">
      <path d="M 633.148563 243.52 
L 633.148563 22.66 
" clip-path="url(#p0048c132b2)" style="fill: none; stroke: #d0d7de; stroke-opacity: 0.35; stroke-width: 0.6; stroke-linecap: square"/>
     </g>
     <g id="line2d_37">
      <g>
       <use xlink:href="#m9e6b99fb8a" x="633.148563" y="243.52" style="fill: #24292f; stroke: #24292f; stroke-width: 0.8"/>
      </g>
     </g>
     <g id="text_22">
      <!-- 600 -->
      <g style="fill: #24292f" transform="translate(625.048563 258.26) scale(0.09 -0.09)">
       <use xlink:href="#PingFangHK-Regular-19"/>
       <use xlink:href="#PingFangHK-Regular-13" transform="translate(60 0)"/>
       <use xlink:href="#PingFangHK-Regular-13" transform="translate(120 0)"/>
      </g>
     </g>
    </g>
    <g id="xtick_11">
     <g id="line2d_38">
      <path d="M 699.572563 243.52 
L 699.572563 22.66 
" clip-path="url(#p0048c132b2)" style="fill: none; stroke: #d0d7de; stroke-opacity: 0.35; stroke-width: 0.6; stroke-linecap: square"/>
     </g>
     <g id="line2d_39">
      <g>
       <use xlink:href="#m9e6b99fb8a" x="699.572563" y="243.52" style="fill: #24292f; stroke: #24292f; stroke-width: 0.8"/>
      </g>
     </g>
     <g id="text_23">
      <!-- 800 -->
      <g style="fill: #24292f" transform="translate(691.472562 258.26) scale(0.09 -0.09)">
       <use xlink:href="#PingFangHK-Regular-1b"/>
       <use xlink:href="#PingFangHK-Regular-13" transform="translate(60 0)"/>
       <use xlink:href="#PingFangHK-Regular-13" transform="translate(120 0)"/>
      </g>
     </g>
    </g>
    <g id="xtick_12">
     <g id="line2d_40">
      <path d="M 765.996562 243.52 
L 765.996562 22.66 
" clip-path="url(#p0048c132b2)" style="fill: none; stroke: #d0d7de; stroke-opacity: 0.35; stroke-width: 0.6; stroke-linecap: square"/>
     </g>
     <g id="line2d_41">
      <g>
       <use xlink:href="#m9e6b99fb8a" x="765.996562" y="243.52" style="fill: #24292f; stroke: #24292f; stroke-width: 0.8"/>
      </g>
     </g>
     <g id="text_24">
      <!-- 1000 -->
      <g style="fill: #24292f" transform="translate(756.092344 258.26) scale(0.09 -0.09)">
       <use xlink:href="#PingFangHK-Regular-14"/>
       <use xlink:href="#PingFangHK-Regular-13" transform="translate(40.09375 0)"/>
       <use xlink:href="#PingFangHK-Regular-13" transform="translate(100.09375 0)"/>
       <use xlink:href="#PingFangHK-Regular-13" transform="translate(160.09375 0)"/>
      </g>
     </g>
    </g>
    <g id="text_25">
     <!-- 时间步 $t$ -->
     <g style="fill: #24292f" transform="translate(581.286563 272.12) scale(0.1 -0.1)">
      <use xlink:href="#PingFangHK-Regular-df8" transform="translate(0 0.40625)"/>
      <use xlink:href="#PingFangHK-Regular-1cf5" transform="translate(99.999908 0.40625)"/>
      <use xlink:href="#PingFangHK-Regular-f8d" transform="translate(199.999817 0.40625)"/>
      <use xlink:href="#PingFangHK-Regular-3" transform="translate(299.999725 0.40625)"/>
      <use xlink:href="#DejaVuSans-Oblique-57" transform="translate(333.299698 0.40625)"/>
     </g>
    </g>
   </g>
   <g id="matplotlib.axis_4">
    <g id="ytick_7">
     <g id="line2d_42">
      <path d="M 433.876562 234.584619 
L 765.996562 234.584619 
" clip-path="url(#p0048c132b2)" style="fill: none; stroke: #d0d7de; stroke-opacity: 0.35; stroke-width: 0.6; stroke-linecap: square"/>
     </g>
     <g id="line2d_43">
      <g>
       <use xlink:href="#ma3e877ad87" x="433.876562" y="234.584619" style="fill: #24292f; stroke: #24292f; stroke-width: 0.8"/>
      </g>
     </g>
     <g id="text_26">
      <!-- -20 -->
      <g style="fill: #24292f" transform="translate(410.631562 238.454619) scale(0.09 -0.09)">
       <defs>
        <path id="PingFangHK-Regular-10" d="M 320 1875 
L 320 1440 
L 3552 1440 
L 3552 1875 
L 320 1875 
z
" transform="scale(0.015625)"/>
       </defs>
       <use xlink:href="#PingFangHK-Regular-10"/>
       <use xlink:href="#PingFangHK-Regular-15" transform="translate(60.5 0)"/>
       <use xlink:href="#PingFangHK-Regular-13" transform="translate(120.5 0)"/>
      </g>
     </g>
    </g>
    <g id="ytick_8">
     <g id="line2d_44">
      <path d="M 433.876562 201.043232 
L 765.996562 201.043232 
" clip-path="url(#p0048c132b2)" style="fill: none; stroke: #d0d7de; stroke-opacity: 0.35; stroke-width: 0.6; stroke-linecap: square"/>
     </g>
     <g id="line2d_45">
      <g>
       <use xlink:href="#ma3e877ad87" x="433.876562" y="201.043232" style="fill: #24292f; stroke: #24292f; stroke-width: 0.8"/>
      </g>
     </g>
     <g id="text_27">
      <!-- -15 -->
      <g style="fill: #24292f" transform="translate(412.423125 204.913232) scale(0.09 -0.09)">
       <use xlink:href="#PingFangHK-Regular-10"/>
       <use xlink:href="#PingFangHK-Regular-14" transform="translate(60.5 0)"/>
       <use xlink:href="#PingFangHK-Regular-18" transform="translate(100.59375 0)"/>
      </g>
     </g>
    </g>
    <g id="ytick_9">
     <g id="line2d_46">
      <path d="M 433.876562 167.501846 
L 765.996562 167.501846 
" clip-path="url(#p0048c132b2)" style="fill: none; stroke: #d0d7de; stroke-opacity: 0.35; stroke-width: 0.6; stroke-linecap: square"/>
     </g>
     <g id="line2d_47">
      <g>
       <use xlink:href="#ma3e877ad87" x="433.876562" y="167.501846" style="fill: #24292f; stroke: #24292f; stroke-width: 0.8"/>
      </g>
     </g>
     <g id="text_28">
      <!-- -10 -->
      <g style="fill: #24292f" transform="translate(412.423125 171.371846) scale(0.09 -0.09)">
       <use xlink:href="#PingFangHK-Regular-10"/>
       <use xlink:href="#PingFangHK-Regular-14" transform="translate(60.5 0)"/>
       <use xlink:href="#PingFangHK-Regular-13" transform="translate(100.59375 0)"/>
      </g>
     </g>
    </g>
    <g id="ytick_10">
     <g id="line2d_48">
      <path d="M 433.876562 133.96046 
L 765.996562 133.96046 
" clip-path="url(#p0048c132b2)" style="fill: none; stroke: #d0d7de; stroke-opacity: 0.35; stroke-width: 0.6; stroke-linecap: square"/>
     </g>
     <g id="line2d_49">
      <g>
       <use xlink:href="#ma3e877ad87" x="433.876562" y="133.96046" style="fill: #24292f; stroke: #24292f; stroke-width: 0.8"/>
      </g>
     </g>
     <g id="text_29">
      <!-- -5 -->
      <g style="fill: #24292f" transform="translate(416.031562 137.83046) scale(0.09 -0.09)">
       <use xlink:href="#PingFangHK-Regular-10"/>
       <use xlink:href="#PingFangHK-Regular-18" transform="translate(60.5 0)"/>
      </g>
     </g>
    </g>
    <g id="ytick_11">
     <g id="line2d_50">
      <path d="M 433.876562 100.419074 
L 765.996562 100.419074 
" clip-path="url(#p0048c132b2)" style="fill: none; stroke: #d0d7de; stroke-opacity: 0.35; stroke-width: 0.6; stroke-linecap: square"/>
     </g>
     <g id="line2d_51">
      <g>
       <use xlink:href="#ma3e877ad87" x="433.876562" y="100.419074" style="fill: #24292f; stroke: #24292f; stroke-width: 0.8"/>
      </g>
     </g>
     <g id="text_30">
      <!-- 0 -->
      <g style="fill: #24292f" transform="translate(421.476562 104.289074) scale(0.09 -0.09)">
       <use xlink:href="#PingFangHK-Regular-13"/>
      </g>
     </g>
    </g>
    <g id="ytick_12">
     <g id="line2d_52">
      <path d="M 433.876562 66.877688 
L 765.996562 66.877688 
" clip-path="url(#p0048c132b2)" style="fill: none; stroke: #d0d7de; stroke-opacity: 0.35; stroke-width: 0.6; stroke-linecap: square"/>
     </g>
     <g id="line2d_53">
      <g>
       <use xlink:href="#ma3e877ad87" x="433.876562" y="66.877688" style="fill: #24292f; stroke: #24292f; stroke-width: 0.8"/>
      </g>
     </g>
     <g id="text_31">
      <!-- 5 -->
      <g style="fill: #24292f" transform="translate(421.476562 70.747688) scale(0.09 -0.09)">
       <use xlink:href="#PingFangHK-Regular-18"/>
      </g>
     </g>
    </g>
    <g id="ytick_13">
     <g id="line2d_54">
      <path d="M 433.876562 33.336302 
L 765.996562 33.336302 
" clip-path="url(#p0048c132b2)" style="fill: none; stroke: #d0d7de; stroke-opacity: 0.35; stroke-width: 0.6; stroke-linecap: square"/>
     </g>
     <g id="line2d_55">
      <g>
       <use xlink:href="#ma3e877ad87" x="433.876562" y="33.336302" style="fill: #24292f; stroke: #24292f; stroke-width: 0.8"/>
      </g>
     </g>
     <g id="text_32">
      <!-- 10 -->
      <g style="fill: #24292f" transform="translate(417.868125 37.206302) scale(0.09 -0.09)">
       <use xlink:href="#PingFangHK-Regular-14"/>
       <use xlink:href="#PingFangHK-Regular-13" transform="translate(40.09375 0)"/>
      </g>
     </g>
    </g>
    <g id="text_33">
     <!-- $\log \mathrm{SNR}_t$ -->
     <g style="fill: #24292f" transform="translate(404.531562 153.49) rotate(-90) scale(0.1 -0.1)">
      <defs>
       <path id="DejaVuSans-4f" d="M 603 4863 
L 1178 4863 
L 1178 0 
L 603 0 
L 603 4863 
z
" transform="scale(0.015625)"/>
       <path id="DejaVuSans-52" d="M 1959 3097 
Q 1497 3097 1228 2736 
Q 959 2375 959 1747 
Q 959 1119 1226 758 
Q 1494 397 1959 397 
Q 2419 397 2687 759 
Q 2956 1122 2956 1747 
Q 2956 2369 2687 2733 
Q 2419 3097 1959 3097 
z
M 1959 3584 
Q 2709 3584 3137 3096 
Q 3566 2609 3566 1747 
Q 3566 888 3137 398 
Q 2709 -91 1959 -91 
Q 1206 -91 779 398 
Q 353 888 353 1747 
Q 353 2609 779 3096 
Q 1206 3584 1959 3584 
z
" transform="scale(0.015625)"/>
       <path id="DejaVuSans-4a" d="M 2906 1791 
Q 2906 2416 2648 2759 
Q 2391 3103 1925 3103 
Q 1463 3103 1205 2759 
Q 947 2416 947 1791 
Q 947 1169 1205 825 
Q 1463 481 1925 481 
Q 2391 481 2648 825 
Q 2906 1169 2906 1791 
z
M 3481 434 
Q 3481 -459 3084 -895 
Q 2688 -1331 1869 -1331 
Q 1566 -1331 1297 -1286 
Q 1028 -1241 775 -1147 
L 775 -588 
Q 1028 -725 1275 -790 
Q 1522 -856 1778 -856 
Q 2344 -856 2625 -561 
Q 2906 -266 2906 331 
L 2906 616 
Q 2728 306 2450 153 
Q 2172 0 1784 0 
Q 1141 0 747 490 
Q 353 981 353 1791 
Q 353 2603 747 3093 
Q 1141 3584 1784 3584 
Q 2172 3584 2450 3431 
Q 2728 3278 2906 2969 
L 2906 3500 
L 3481 3500 
L 3481 434 
z
" transform="scale(0.015625)"/>
       <path id="DejaVuSans-36" d="M 3425 4513 
L 3425 3897 
Q 3066 4069 2747 4153 
Q 2428 4238 2131 4238 
Q 1616 4238 1336 4038 
Q 1056 3838 1056 3469 
Q 1056 3159 1242 3001 
Q 1428 2844 1947 2747 
L 2328 2669 
Q 3034 2534 3370 2195 
Q 3706 1856 3706 1288 
Q 3706 609 3251 259 
Q 2797 -91 1919 -91 
Q 1588 -91 1214 -16 
Q 841 59 441 206 
L 441 856 
Q 825 641 1194 531 
Q 1563 422 1919 422 
Q 2459 422 2753 634 
Q 3047 847 3047 1241 
Q 3047 1584 2836 1778 
Q 2625 1972 2144 2069 
L 1759 2144 
Q 1053 2284 737 2584 
Q 422 2884 422 3419 
Q 422 4038 858 4394 
Q 1294 4750 2059 4750 
Q 2388 4750 2728 4690 
Q 3069 4631 3425 4513 
z
" transform="scale(0.015625)"/>
       <path id="DejaVuSans-31" d="M 628 4666 
L 1478 4666 
L 3547 763 
L 3547 4666 
L 4159 4666 
L 4159 0 
L 3309 0 
L 1241 3903 
L 1241 0 
L 628 0 
L 628 4666 
z
" transform="scale(0.015625)"/>
       <path id="DejaVuSans-35" d="M 2841 2188 
Q 3044 2119 3236 1894 
Q 3428 1669 3622 1275 
L 4263 0 
L 3584 0 
L 2988 1197 
Q 2756 1666 2539 1819 
Q 2322 1972 1947 1972 
L 1259 1972 
L 1259 0 
L 628 0 
L 628 4666 
L 2053 4666 
Q 2853 4666 3247 4331 
Q 3641 3997 3641 3322 
Q 3641 2881 3436 2590 
Q 3231 2300 2841 2188 
z
M 1259 4147 
L 1259 2491 
L 2053 2491 
Q 2509 2491 2742 2702 
Q 2975 2913 2975 3322 
Q 2975 3731 2742 3939 
Q 2509 4147 2053 4147 
L 1259 4147 
z
" transform="scale(0.015625)"/>
      </defs>
      <use xlink:href="#DejaVuSans-4f" transform="translate(0 0.015625)"/>
      <use xlink:href="#DejaVuSans-52" transform="translate(27.783203 0.015625)"/>
      <use xlink:href="#DejaVuSans-4a" transform="translate(88.964844 0.015625)"/>
      <use xlink:href="#DejaVuSans-36" transform="translate(168.677083 0.015625)"/>
      <use xlink:href="#DejaVuSans-31" transform="translate(232.153645 0.015625)"/>
      <use xlink:href="#DejaVuSans-35" transform="translate(306.958333 0.015625)"/>
      <use xlink:href="#DejaVuSans-Oblique-57" transform="translate(377.397786 -14.984326) scale(0.7)"/>
     </g>
    </g>
   </g>
   <g id="line2d_56">
    <path d="M 434.208682 38.634229 
L 434.540802 43.921416 
L 435.205042 49.689207 
L 435.869282 53.367734 
L 436.865642 57.310314 
L 437.862002 60.275254 
L 439.190482 63.377789 
L 440.518962 65.875053 
L 442.179562 68.446904 
L 443.840162 70.600273 
L 445.832882 72.797721 
L 448.157722 74.979713 
L 450.482562 76.862361 
L 453.139522 78.742281 
L 456.128602 80.596015 
L 459.781922 82.579821 
L 463.767362 84.47869 
L 468.417042 86.432847 
L 473.730962 88.409093 
L 479.709122 90.389007 
L 486.683642 92.459133 
L 494.986642 94.680016 
L 504.950243 97.100582 
L 517.238682 99.843876 
L 533.844682 103.30687 
L 595.619002 115.983719 
L 612.889243 119.867578 
L 628.831002 123.682085 
L 643.776403 127.485509 
L 658.389682 131.435092 
L 672.670842 135.527242 
L 686.619883 139.753743 
L 700.568922 144.212188 
L 714.517963 148.905903 
L 728.467003 153.837001 
L 742.416043 159.006802 
L 756.365082 164.416133 
L 765.996562 168.291231 
L 765.996562 168.291231 
" clip-path="url(#p0048c132b2)" style="fill: none; stroke: #e8710a; stroke-width: 2.2; stroke-linecap: square"/>
   </g>
   <g id="line2d_57">
    <path d="M 434.208682 32.699091 
L 434.540802 37.732555 
L 435.205042 43.089644 
L 435.869282 46.449548 
L 436.865642 50.028073 
L 437.862002 52.71937 
L 439.190482 55.546899 
L 440.518962 57.83619 
L 442.179562 60.208847 
L 443.840162 62.207688 
L 445.832882 64.258555 
L 448.157722 66.304944 
L 450.814683 68.312129 
L 453.803763 70.260338 
L 457.124962 72.139612 
L 460.778282 73.946254 
L 465.095843 75.815696 
L 469.745522 77.584307 
L 475.059442 79.369039 
L 481.037602 81.146098 
L 488.012122 82.983869 
L 495.983002 84.848504 
L 505.282362 86.78502 
L 515.910202 88.763697 
L 528.530763 90.87609 
L 543.476162 93.141546 
L 562.074883 95.723458 
L 588.312362 99.118485 
L 640.123083 105.781883 
L 658.721802 108.422833 
L 673.667203 110.762885 
L 685.955643 112.904897 
L 696.251362 114.913372 
L 705.218602 116.880323 
L 712.857363 118.770988 
L 719.499762 120.629406 
L 725.477922 122.528059 
L 730.791843 124.454406 
L 735.441523 126.385319 
L 739.426962 128.283054 
L 742.748163 130.090984 
L 745.737242 131.950259 
L 748.394203 133.846328 
L 750.719043 135.754339 
L 752.711763 137.63508 
L 754.704483 139.820354 
L 756.365082 141.95788 
L 758.025683 144.499737 
L 759.354163 146.947777 
L 760.682642 149.943159 
L 761.679003 152.729909 
L 762.675363 156.250683 
L 763.339602 159.244892 
L 764.003843 163.104898 
L 764.668083 168.54506 
L 765.000203 172.404838 
L 765.332322 177.844837 
L 765.664442 187.144514 
L 765.996562 233.480909 
L 765.996562 233.480909 
" clip-path="url(#p0048c132b2)" style="fill: none; stroke: #4c6ef5; stroke-width: 2.2; stroke-linecap: square"/>
   </g>
   <g id="line2d_58">
    <path d="M 433.876562 100.419074 
L 765.996562 100.419074 
" clip-path="url(#p0048c132b2)" style="fill: none; stroke-dasharray: 3.7,1.6; stroke-dashoffset: 0; stroke: #d0d7de; stroke-opacity: 0.8"/>
   </g>
   <g id="patch_9">
    <path d="M 433.876562 243.52 
L 433.876562 22.66 
" style="fill: none; stroke: #d0d7de; stroke-width: 0.8; stroke-linejoin: miter; stroke-linecap: square"/>
   </g>
   <g id="patch_10">
    <path d="M 765.996562 243.52 
L 765.996562 22.66 
" style="fill: none; stroke: #d0d7de; stroke-width: 0.8; stroke-linejoin: miter; stroke-linecap: square"/>
   </g>
   <g id="patch_11">
    <path d="M 433.876562 243.52 
L 765.996562 243.52 
" style="fill: none; stroke: #d0d7de; stroke-width: 0.8; stroke-linejoin: miter; stroke-linecap: square"/>
   </g>
   <g id="patch_12">
    <path d="M 433.876562 22.66 
L 765.996562 22.66 
" style="fill: none; stroke: #d0d7de; stroke-width: 0.8; stroke-linejoin: miter; stroke-linecap: square"/>
   </g>
   <g id="text_34">
    <!-- 对数信噪比（0 以下：噪声已压过信号） -->
    <g style="fill: #24292f" transform="translate(501.305234 16.66) scale(0.11 -0.11)">
     <defs>
      <path id="PingFangHK-Regular-a52" d="M 3053 3987 
L 3053 3546 
L 4909 3546 
L 4909 141 
C 4909 -83 4787 -198 4550 -198 
C 4256 -198 3942 -186 3610 -166 
L 3706 -621 
L 4710 -621 
C 5146 -621 5370 -403 5370 26 
L 5370 3546 
L 6080 3546 
L 6080 3987 
L 5370 3987 
L 5370 5242 
L 4909 5242 
L 4909 3987 
L 3053 3987 
z
M 762 3571 
L 454 3283 
C 902 2784 1312 2291 1670 1811 
C 1338 1184 870 640 269 179 
L 538 -224 
C 1126 262 1600 813 1952 1427 
C 2182 1101 2394 781 2586 461 
L 2918 794 
C 2694 1152 2445 1517 2176 1875 
C 2509 2586 2688 3379 2720 4250 
L 2720 4589 
L 550 4589 
L 550 4141 
L 2304 4141 
C 2259 3462 2118 2835 1882 2259 
C 1536 2694 1165 3136 762 3571 
z
M 3398 2790 
L 3046 2534 
C 3443 2042 3770 1574 4026 1133 
L 4390 1389 
C 4160 1798 3827 2266 3398 2790 
z
" transform="scale(0.015625)"/>
      <path id="PingFangHK-Regular-ac17" d="M 4166 3808 
L 5190 3808 
C 5165 2906 5018 2125 4742 1466 
C 4499 1901 4307 2381 4154 2893 
L 3795 2688 
C 3974 2074 4211 1510 4512 998 
C 4218 486 3827 64 3341 -269 
L 3584 -659 
C 4058 -314 4448 102 4762 602 
C 5069 141 5440 -275 5869 -653 
L 6163 -307 
C 5715 83 5325 531 4998 1037 
C 5370 1805 5574 2726 5606 3808 
L 6074 3808 
L 6074 4250 
L 4275 4250 
C 4339 4531 4397 4838 4448 5165 
L 4006 5242 
C 3859 4102 3578 3194 3155 2528 
L 3437 2176 
C 3738 2611 3981 3155 4166 3808 
z
M 1504 2278 
C 1453 2144 1402 2003 1338 1850 
L 403 1850 
L 403 1446 
L 1152 1446 
C 1024 1203 883 947 717 678 
C 1043 550 1350 429 1638 301 
C 1261 83 800 -96 256 -237 
L 474 -621 
C 1126 -442 1664 -198 2093 96 
C 2470 -83 2803 -256 3085 -429 
L 3328 -70 
C 3040 90 2746 237 2445 378 
C 2778 685 3014 1050 3155 1472 
L 3155 1850 
L 1792 1850 
C 1843 1978 1888 2099 1933 2227 
L 1504 2278 
z
M 2022 563 
C 1779 672 1530 768 1274 858 
C 1395 1043 1510 1242 1613 1446 
L 2733 1446 
C 2579 1114 2342 819 2022 563 
z
M 941 5146 
L 570 5024 
C 723 4787 870 4518 1005 4211 
L 1338 4358 
C 1222 4640 1094 4902 941 5146 
z
M 2886 5171 
C 2765 4909 2605 4640 2413 4371 
L 2739 4205 
C 2938 4467 3104 4736 3232 5011 
L 2886 5171 
z
M 429 4000 
L 429 3597 
L 1421 3597 
C 1203 3238 819 2918 269 2637 
L 506 2259 
C 1056 2592 1446 2982 1690 3430 
L 1690 2362 
L 2112 2362 
L 2112 3142 
C 2330 2982 2592 2765 2893 2490 
L 3130 2848 
C 2790 3085 2451 3296 2112 3482 
L 2112 3597 
L 3270 3597 
L 3270 4000 
L 2112 4000 
L 2112 5222 
L 1690 5222 
L 1690 4000 
L 429 4000 
z
" transform="scale(0.015625)"/>
      <path id="PingFangHK-Regular-891" d="M 2848 5005 
L 2848 3680 
L 5363 3680 
L 5363 5005 
L 2848 5005 
z
M 4934 4045 
L 3270 4045 
L 3270 4646 
L 4934 4646 
L 4934 4045 
z
M 4301 3315 
L 4301 2035 
L 5869 2035 
L 5869 3315 
L 4301 3315 
z
M 5478 2381 
L 4691 2381 
L 4691 2970 
L 5478 2970 
L 5478 2381 
z
M 3878 1894 
L 3878 1440 
L 2278 1440 
L 2278 1018 
L 3354 1018 
C 3046 582 2566 218 1914 -77 
L 2157 -467 
C 2886 -77 3411 416 3744 1018 
L 3878 1018 
L 3878 -653 
L 4320 -653 
L 4320 1018 
L 4461 1018 
C 4742 480 5216 -13 5888 -461 
L 6195 -83 
C 5568 243 5120 608 4845 1018 
L 5978 1018 
L 5978 1440 
L 4320 1440 
L 4320 1894 
L 3878 1894 
z
M 2342 3315 
L 2342 2035 
L 3910 2035 
L 3910 3315 
L 2342 3315 
z
M 3514 2381 
L 2739 2381 
L 2739 2970 
L 3514 2970 
L 3514 2381 
z
M 1984 4698 
L 512 4698 
L 512 147 
L 941 147 
L 941 589 
L 1984 589 
L 1984 4698 
z
M 941 1011 
L 941 4275 
L 1555 4275 
L 1555 1011 
L 941 1011 
z
" transform="scale(0.015625)"/>
      <path id="PingFangHK-Regular-481" d="M 5440 5293 
C 5158 4883 4941 4442 4781 3974 
C 4589 3424 4499 2867 4499 2298 
C 4499 1741 4589 1184 4781 634 
C 4941 173 5158 -269 5440 -685 
L 5888 -685 
C 5632 -256 5427 186 5280 640 
C 5088 1203 4998 1760 4998 2304 
C 4998 2854 5088 3405 5280 3968 
C 5427 4429 5632 4870 5888 5293 
L 5440 5293 
z
" transform="scale(0.015625)"/>
      <path id="PingFangHK-Regular-72a5" d="M 896 5152 
L 896 608 
C 723 544 550 486 371 422 
L 531 -26 
C 1389 282 2176 640 2906 1050 
L 2771 1491 
C 2310 1235 1843 998 1357 794 
L 1357 5152 
L 896 5152 
z
M 2426 4538 
L 2035 4301 
C 2598 3642 3034 3046 3354 2509 
L 3744 2771 
C 3437 3277 3002 3866 2426 4538 
z
M 4621 1395 
C 5107 730 5498 96 5792 -499 
L 6144 -147 
C 5786 512 5344 1171 4819 1830 
C 4858 1926 4890 2022 4922 2118 
C 5178 2963 5312 3987 5312 5197 
L 4838 5197 
C 4832 3968 4698 2950 4435 2144 
C 4090 1197 3373 416 2298 -211 
L 2605 -589 
C 3533 -51 4205 614 4621 1395 
z
" transform="scale(0.015625)"/>
      <path id="PingFangHK-Regular-4e5" d="M 352 4890 
L 352 4435 
L 2797 4435 
L 2797 -653 
L 3264 -653 
L 3264 2982 
C 3840 2675 4557 2240 5408 1677 
L 5683 2086 
C 4864 2611 4058 3072 3264 3469 
L 3264 4435 
L 6042 4435 
L 6042 4890 
L 352 4890 
z
" transform="scale(0.015625)"/>
      <path id="PingFangHK-Regular-7269" d="M 3200 3898 
C 3085 3898 2995 3859 2918 3776 
C 2842 3706 2810 3616 2810 3501 
C 2810 3392 2842 3302 2918 3226 
C 2995 3149 3085 3110 3200 3110 
C 3309 3110 3405 3149 3482 3226 
C 3558 3302 3597 3392 3597 3501 
C 3597 3616 3558 3706 3482 3776 
C 3405 3859 3309 3898 3200 3898 
z
M 3200 1555 
C 3085 1555 2995 1517 2918 1434 
C 2842 1363 2810 1274 2810 1158 
C 2810 1050 2842 960 2918 883 
C 2995 806 3085 768 3200 768 
C 3309 768 3405 806 3482 883 
C 3558 960 3597 1050 3597 1158 
C 3597 1274 3558 1363 3482 1434 
C 3405 1517 3309 1555 3200 1555 
z
" transform="scale(0.015625)"/>
      <path id="PingFangHK-Regular-94d" d="M 435 4710 
L 435 4288 
L 2963 4288 
L 2963 3706 
L 787 3706 
L 787 3290 
L 5626 3290 
L 5626 3706 
L 3437 3706 
L 3437 4288 
L 5958 4288 
L 5958 4710 
L 3437 4710 
L 3437 5235 
L 2963 5235 
L 2963 4710 
L 435 4710 
z
M 3027 2413 
L 3027 1632 
L 1402 1632 
C 1408 1734 1414 1830 1414 1933 
L 1414 2413 
L 3027 2413 
z
M 3488 1632 
L 3488 2413 
L 5050 2413 
L 5050 1632 
L 3488 1632 
z
M 1363 1222 
L 5498 1222 
L 5498 2822 
L 960 2822 
L 960 1933 
C 954 1005 730 250 288 -339 
L 666 -678 
C 1037 -128 1267 506 1363 1222 
z
" transform="scale(0.015625)"/>
      <path id="PingFangHK-Regular-aea" d="M 5344 2330 
L 5344 4890 
L 608 4890 
L 608 4442 
L 4877 4442 
L 4877 2771 
L 1325 2771 
L 1325 3718 
L 864 3718 
L 864 358 
C 864 -166 1120 -435 1638 -435 
L 5107 -435 
C 5376 -422 5587 -352 5728 -218 
C 5882 -51 5990 422 6054 1216 
L 5606 1357 
C 5568 653 5485 243 5357 128 
C 5261 51 5133 13 4979 13 
L 1766 13 
C 1472 13 1325 160 1325 442 
L 1325 2330 
L 5344 2330 
z
" transform="scale(0.015625)"/>
      <path id="PingFangHK-Regular-734" d="M 1690 2778 
L 1690 2323 
L 3456 2323 
L 3456 77 
L 1344 77 
L 1344 -371 
L 6106 -371 
L 6106 77 
L 3917 77 
L 3917 2323 
L 5754 2323 
L 5754 2778 
L 3917 2778 
L 3917 4090 
L 3456 4090 
L 3456 2778 
L 1690 2778 
z
M 4774 1965 
L 4416 1741 
C 4781 1235 5069 774 5286 352 
L 5658 614 
C 5453 998 5158 1453 4774 1965 
z
M 5946 4960 
L 813 4960 
L 813 2931 
C 800 1530 602 435 224 -346 
L 576 -659 
C 1018 237 1248 1434 1274 2931 
L 1274 4512 
L 5946 4512 
L 5946 4960 
z
" transform="scale(0.015625)"/>
      <path id="PingFangHK-Regular-9251" d="M 4493 333 
C 4890 333 5088 525 5088 909 
L 5088 3731 
L 6048 3731 
L 6048 4179 
L 5088 4179 
L 5088 5216 
L 4634 5216 
L 4634 4179 
L 2150 4179 
L 2150 3731 
L 4634 3731 
L 4634 1018 
C 4634 838 4531 749 4333 749 
C 4064 749 3789 762 3494 781 
L 3590 333 
L 4493 333 
z
M 2874 3155 
L 2515 2931 
C 2899 2458 3206 2029 3430 1638 
L 3795 1901 
C 3584 2259 3277 2675 2874 3155 
z
M 794 5165 
L 486 4870 
C 902 4538 1229 4224 1472 3930 
L 1773 4230 
C 1504 4538 1178 4851 794 5165 
z
M 358 3629 
L 358 3206 
L 1344 3206 
C 1114 2848 826 2490 493 2125 
L 493 1773 
L 1485 1773 
C 1402 1350 1293 979 1165 653 
C 883 576 589 250 282 -326 
L 608 -627 
C 915 -58 1152 224 1318 224 
C 1370 224 1421 205 1466 160 
C 1683 -64 1926 -230 2189 -333 
C 2413 -429 2746 -480 3181 -493 
C 3546 -506 3968 -512 4442 -512 
L 6067 -512 
L 6170 -70 
C 5434 -96 4838 -109 4384 -109 
C 3936 -109 3546 -102 3200 -102 
C 2842 -90 2560 -45 2355 32 
C 2150 128 1946 269 1747 461 
C 1690 512 1632 557 1581 589 
C 1709 928 1818 1350 1901 1856 
L 1901 2163 
L 1037 2163 
C 1344 2522 1619 2886 1850 3264 
L 1850 3629 
L 358 3629 
z
" transform="scale(0.015625)"/>
      <path id="PingFangHK-Regular-482" d="M 512 5293 
C 768 4870 966 4429 1120 3968 
C 1306 3405 1402 2854 1402 2304 
C 1402 1760 1306 1203 1120 640 
C 966 186 768 -256 512 -685 
L 960 -685 
C 1235 -269 1453 173 1619 634 
C 1805 1184 1901 1741 1901 2298 
C 1901 2867 1805 3424 1619 3974 
C 1453 4442 1235 4883 960 5293 
L 512 5293 
z
" transform="scale(0.015625)"/>
     </defs>
     <use xlink:href="#PingFangHK-Regular-a52"/>
     <use xlink:href="#PingFangHK-Regular-ac17" transform="translate(100 0)"/>
     <use xlink:href="#PingFangHK-Regular-5de" transform="translate(200 0)"/>
     <use xlink:href="#PingFangHK-Regular-891" transform="translate(300 0)"/>
     <use xlink:href="#PingFangHK-Regular-7a49" transform="translate(400 0)"/>
     <use xlink:href="#PingFangHK-Regular-481" transform="translate(500 0)"/>
     <use xlink:href="#PingFangHK-Regular-13" transform="translate(600 0)"/>
     <use xlink:href="#PingFangHK-Regular-3" transform="translate(660 0)"/>
     <use xlink:href="#PingFangHK-Regular-72a5" transform="translate(693.296875 0)"/>
     <use xlink:href="#PingFangHK-Regular-4e5" transform="translate(793.296875 0)"/>
     <use xlink:href="#PingFangHK-Regular-7269" transform="translate(893.296875 0)"/>
     <use xlink:href="#PingFangHK-Regular-891" transform="translate(993.296875 0)"/>
     <use xlink:href="#PingFangHK-Regular-94d" transform="translate(1093.296875 0)"/>
     <use xlink:href="#PingFangHK-Regular-aea" transform="translate(1193.296875 0)"/>
     <use xlink:href="#PingFangHK-Regular-734" transform="translate(1293.296875 0)"/>
     <use xlink:href="#PingFangHK-Regular-9251" transform="translate(1393.296875 0)"/>
     <use xlink:href="#PingFangHK-Regular-5de" transform="translate(1493.296875 0)"/>
     <use xlink:href="#PingFangHK-Regular-769" transform="translate(1593.296875 0)"/>
     <use xlink:href="#PingFangHK-Regular-482" transform="translate(1693.296875 0)"/>
    </g>
   </g>
   <g id="legend_2">
    <g id="line2d_59">
     <path d="M 705.624844 35.35 
L 714.624844 35.35 
L 723.624844 35.35 
" style="fill: none; stroke: #e8710a; stroke-width: 2.2; stroke-linecap: square"/>
    </g>
    <g id="text_35">
     <!-- linear -->
     <g style="fill: #24292f" transform="translate(730.824844 38.5) scale(0.09 -0.09)">
      <use xlink:href="#PingFangHK-Regular-4f"/>
      <use xlink:href="#PingFangHK-Regular-4c" transform="translate(23.5 0)"/>
      <use xlink:href="#PingFangHK-Regular-51" transform="translate(49.09375 0)"/>
      <use xlink:href="#PingFangHK-Regular-48" transform="translate(105 0)"/>
      <use xlink:href="#PingFangHK-Regular-44" transform="translate(160.5 0)"/>
      <use xlink:href="#PingFangHK-Regular-55" transform="translate(216.40625 0)"/>
     </g>
    </g>
    <g id="line2d_60">
     <path d="M 705.624844 48.85 
L 714.624844 48.85 
L 723.624844 48.85 
" style="fill: none; stroke: #4c6ef5; stroke-width: 2.2; stroke-linecap: square"/>
    </g>
    <g id="text_36">
     <!-- cosine -->
     <g style="fill: #24292f" transform="translate(730.824844 52) scale(0.09 -0.09)">
      <use xlink:href="#PingFangHK-Regular-46"/>
      <use xlink:href="#PingFangHK-Regular-52" transform="translate(54.703125 0)"/>
      <use xlink:href="#PingFangHK-Regular-56" transform="translate(113.296875 0)"/>
      <use xlink:href="#PingFangHK-Regular-4c" transform="translate(163.796875 0)"/>
      <use xlink:href="#PingFangHK-Regular-51" transform="translate(189.390625 0)"/>
      <use xlink:href="#PingFangHK-Regular-48" transform="translate(245.296875 0)"/>
     </g>
    </g>
   </g>
  </g>
 </g>
 <defs>
  <clipPath id="pf714fd7458">
   <rect x="41.476562" y="22.66" width="332.12" height="220.86"/>
  </clipPath>
  <clipPath id="p0048c132b2">
   <rect x="433.876562" y="22.66" width="332.12" height="220.86"/>
  </clipPath>
 </defs>
</svg>
